<svg id="Layer_1" data-name="Layer 1" xmlns="http://www.w3.org/2000/svg" viewBox="0 0 3258.43 600.2"><defs><style>.cls-1{fill:#58595b;}</style></defs><title>pictaktoe Assets-2</title><path class="cls-1" d="M4980.79,5138.72a0,0,0,0,0,0,0" transform="translate(-3540.62 -4845.27)"/><path class="cls-1" d="M4980.79,5138.71a0,0,0,0,0,0,0" transform="translate(-3540.62 -4845.27)"/><path class="cls-1" d="M5751.57,5289.17c-1.39-42.93,3.44-90-4.46-132.17a0.8,0.8,0,0,0-1.54,0c-7.12,42.08-.5,89.59.92,132.17q2.35,70.51,6.58,140.94c0.19,3.18,5.16,3.2,5,0Q5753.92,5359.69,5751.57,5289.17Z" transform="translate(-3540.62 -4845.27)"/><path class="cls-1" d="M6787.62,5260.63c-33.42.67-67,2.37-100.27,5.19q-0.43-21.7-.81-43.41c-1.17-70-7-141.53,4-210.93a1.91,1.91,0,0,0-2.29-2.15,2.38,2.38,0,0,0-.82-0.2c-45.43-2.23-92,3-137-5.48a1.59,1.59,0,0,0-1.91,1.55,1.52,1.52,0,0,0-.23.81c0,85.08,2.9,170.51,6.35,255.84-9.41-.6-18.85-1-28.27-1.36-8.36-.33-17.18-1.52-25.38.28-1.06-25.84-2.35-51.69-5.16-77.35-0.19-1.75-2.77-1.84-2.8,0v0.06c-15.7-.14-31.4-0.37-47.1-0.52q-1.25-15.8-2.89-31.57c-0.81-7.88-.67-16.47-4.42-23.56a0.3,0.3,0,0,0-.54.07c-2.54,8-.66,17.29,0,25.61q1.16,14.71,2.63,29.4c-6,0-12-.14-18-0.13-9.91,0-28.63-4-36.09,4.32a1.48,1.48,0,0,0-.41,1.17c-1.21-.92-3.31-0.49-3.19,1.45,2.35,38.72,4.78,77.35,5.18,116.16,0.4,38-4.94,77.54-.88,115.31,0.32,3,5,3,4.68,0-4-37.82,1.4-77.25,1.17-115.31-0.24-38.74-1.84-77.64-6.15-116.16a2,2,0,0,0-.12-0.38,1.49,1.49,0,0,0,1.83-.13c8-6.67,40.8-.69,50.55-0.65,17.91,0.07,35.83,0,53.74.11-0.22,38.57,2.79,77.27,4.67,115.77,2,40.29,2.77,80.86,6.34,121,0.23,2.56,4.08,2.66,4.07,0-0.29-40.31-3.38-80.77-5.29-121-0.65-13.77-1.16-27.57-1.72-41.38,8,2.52,17,2.21,25.29,2.68,9.49,0.54,19,1.08,28.48,1.38,2.13,52.35,4.46,104.66,6.47,156.82,0.1,2.73,4.3,2.75,4.26,0-2.18-138.51-3.69-278.71-14.09-416.87,42.67,11.26,91.26,8.18,135,6.49-13.41,64.83-6.18,134-4.87,199.73q0.53,26.46,1,52.93a1.6,1.6,0,0,0,.05,3.16c0.87,52.55,1.61,105.1,2.93,157.63,0.08,3,4.78,3.06,4.75,0-0.61-52.55-1.82-105.09-2.87-157.63,33.39-.06,66.9-1.26,100.2-3.46C6791,5265.7,6791.07,5260.56,6787.62,5260.63Z" transform="translate(-3540.62 -4845.27)"/><path class="cls-1" d="M6793.77,5265.1a1.16,1.16,0,0,0-2.31,0c-6.69,51.13-2.07,105.75-1.64,157.26,0,3.26,5.09,3.27,5.07,0C6794.63,5370.65,6799.46,5316.48,6793.77,5265.1Z" transform="translate(-3540.62 -4845.27)"/><path class="cls-1" d="M6770.67,5285.12c-22.43-2.52-45.94-.09-68.16,3.41-1.29.2-1,2.44,0.31,2.3,22.75-2.46,45.05-2,67.85-2.33C6772.9,5288.46,6772.79,5285.35,6770.67,5285.12Z" transform="translate(-3540.62 -4845.27)"/><path class="cls-1" d="M6773.75,5296.82c-25.78.27-51.9,3.34-77.26,7.9a0.9,0.9,0,0,0,.24,1.76c25.67-2.43,51.31-4,77-5.76C6776.23,5300.55,6776.29,5296.79,6773.75,5296.82Z" transform="translate(-3540.62 -4845.27)"/><path class="cls-1" d="M6770.62,5306.52c-22.08,1.17-44.25,5.71-66.25,8.24-1.24.14-1.3,2.06,0,2,21.95-1.36,45.21-2.23,66.61-7.57A1.36,1.36,0,0,0,6770.62,5306.52Z" transform="translate(-3540.62 -4845.27)"/><path class="cls-1" d="M6770.63,5322.27c-22-.38-44.51,5.33-66-0.89a1.09,1.09,0,0,0-.58,2.1c20.19,7.15,45.82,4.4,66.62,1.91C6772.57,5325.16,6772.69,5322.3,6770.63,5322.27Z" transform="translate(-3540.62 -4845.27)"/><path class="cls-1" d="M6772.22,5340.82c-20.81-2.22-42.9.38-63.56,3.15-1.42.19-1.1,2.66,0.34,2.52,21.08-2,42.17-1.45,63.22-3A1.35,1.35,0,0,0,6772.22,5340.82Z" transform="translate(-3540.62 -4845.27)"/><path class="cls-1" d="M6772.22,5356.14c-23-.89-46.55,2.13-69.36,5-1.52.19-1.58,2.6,0,2.44,23.09-2.32,46.28-2.54,69.36-4.6A1.43,1.43,0,0,0,6772.22,5356.14Z" transform="translate(-3540.62 -4845.27)"/><path class="cls-1" d="M6773.74,5377.85c-22.71-.54-45.08,1.08-67.84-0.72-0.88-.07-1.1,1.44-0.21,1.57,22.07,3,46.29,5.28,68.35,1.33C6775.3,5379.8,6774.95,5377.88,6773.74,5377.85Z" transform="translate(-3540.62 -4845.27)"/><path class="cls-1" d="M6773.76,5394.62a500,500,0,0,0-64.78,1.52,0.91,0.91,0,0,0,0,1.82c21.63-.55,43.15-0.37,64.78,0C6775.92,5398,6775.9,5394.72,6773.76,5394.62Z" transform="translate(-3540.62 -4845.27)"/><path class="cls-1" d="M6776.78,5403.21c-23.74,2.39-47,4.36-70.89,3.34-1.33-.06-1.3,1.93,0,2,23.66,2.1,47.91,2.26,71.36-2C6779.15,5406.28,6778.73,5403,6776.78,5403.21Z" transform="translate(-3540.62 -4845.27)"/><path class="cls-1" d="M6580,5219.47c-1.22-63.39-2.61-127.19-8.67-190.33-0.15-1.55-2.54-1.61-2.47,0,2.52,63.47,7,126.79,8.34,190.33s-1.13,127-.37,190.51a1,1,0,0,0,2,0C6583,5346.77,6581.19,5282.77,6580,5219.47Z" transform="translate(-3540.62 -4845.27)"/><path class="cls-1" d="M6586.25,5030.79a1,1,0,0,0-2,0c-0.17,130,4.79,260.19,8.23,390.09,0.05,2,3.16,2,3.12,0C6593.2,5290.94,6592.27,5160.61,6586.25,5030.79Z" transform="translate(-3540.62 -4845.27)"/><path class="cls-1" d="M6602.22,5027.68a0.86,0.86,0,0,0-1.72,0c2.11,128.37,7.36,257.31,14.68,385.48,0.11,1.91,3,1.94,3,0C6615.3,5284.8,6610.29,5155.83,6602.22,5027.68Z" transform="translate(-3540.62 -4845.27)"/><path class="cls-1" d="M6635.26,5217c1.06-61.25,2.55-125.17-12-185.13-0.16-.64-1.26-0.52-1.18.16a1366.78,1366.78,0,0,1,9.4,189.41c-1.18,63.53-3.53,127.2,3.18,190.52,0.23,2.22,3.73,2.26,3.51,0C6632.08,5347.06,6634.13,5282.13,6635.26,5217Z" transform="translate(-3540.62 -4845.27)"/><path class="cls-1" d="M6646.79,5033.86a1,1,0,0,0-1.92,0c-0.73,129.38,3.95,259.22,7.37,388.56,0.06,2.17,3.42,2.18,3.38,0C6653.64,5293,6652.9,5163.11,6646.79,5033.86Z" transform="translate(-3540.62 -4845.27)"/><path class="cls-1" d="M6666.12,5026.12a1,1,0,0,0-2,0c2.61,130.06,8.41,260,9.83,390.08,0,2.22,3.46,2.22,3.45,0C6676.32,5286.34,6675.06,5155.7,6666.12,5026.12Z" transform="translate(-3540.62 -4845.27)"/><path class="cls-1" d="M6488.55,5341.63c-1.65,0-3.3,0-4.94-.07q-0.34-14.17-.8-28.35a1.39,1.39,0,0,0-.08-2.66q-0.4-12-.86-24.05l0.52,0a1.32,1.32,0,0,0,0-2.63h-0.61q-0.24-6.45-.49-12.89a1.34,1.34,0,0,0-.1-2.56q-0.28-7.06-.55-14.11s0-.06,0-0.1c-0.68-17.57-1.33-35.12-1.85-52.62a1.6,1.6,0,0,0-.08-2.36c0-.64,0-1.27-0.06-1.91a1.14,1.14,0,0,0-2.28,0c0,0.5,0,1,0,1.5-17.91-.71-35.89-0.35-53.8,0-5.3.09-18.69-2.86-21.89,2.81a0.5,0.5,0,0,0,.17.66l1.09,0.75a0.35,0.35,0,0,0,.47-0.12l0.57-.76c0.2-.27-0.24-0.59-0.46-0.35,1.14-1.23,6.27-.67,10.17-0.23,0,5.19,0,10.39,0,15.59-3,0-6,0-9,0a1,1,0,0,0,0,2l9,0.66q0.06,9.43.23,18.89a36.58,36.58,0,0,1-5.56-.5,0.73,0.73,0,0,0,.39-1.41l-0.78-.24a0.79,0.79,0,0,0-.88.36l-0.52.89a0.92,0.92,0,0,0,.14,1.09c1.46,1.54,4.16,2.18,7.26,2.42,0.07,3.66.1,7.31,0.19,11-2.62-.07-5.25-0.07-7.87-0.2-1.2-.06-1.18,1.76,0,1.85l7.94,0.66c0.14,5.52.33,11,.51,16.56-3.33.29-6.68,0.56-10,.87a0.81,0.81,0,0,0,0,1.63c3.33,0,6.71,0,10.06.07q0.21,6,.44,12-5.25.25-10.5,0.48a0.83,0.83,0,0,0,0,1.66q5.29,0,10.59,0,0.44,10.79,1,21.58l-3.85.1a0.7,0.7,0,0,0,0,1.4l3.94,0.29q0.4,8,.85,16l-6.32.32a0.86,0.86,0,0,0,0,1.72l6.43,0q0.35,6.34.73,12.67l-11.79.29a0.73,0.73,0,0,0,0,1.46l11.91,0.25c0.36,6,.71,12,1.1,18-3.81,0-7.63,0-11.48-.11a0.65,0.65,0,0,0,0,1.3q5.77,0.38,11.6.63,0.43,6.6.88,13.19c-3.13,0-6.25,0-9.38-.13a0.88,0.88,0,0,0,0,1.76l9.52,0.48c0.25,3.74.5,7.48,0.76,11.21-4.47.1-8.94,0.21-13.43,0.2a0.91,0.91,0,0,0,0,1.82c4.49,0.33,9,.59,13.63.81q0.42,6,.84,11.89c-5.35-.23-10.7-0.47-16.06-0.89-1.18-.09-1.15,1.7,0,1.82,5.41,0.58,10.82,1,16.23,1.42,0.18,2.46.35,4.93,0.52,7.39,0.11,1.59,2.53,1.63,2.5,0,0-2.39-.1-4.79-0.14-7.18,4.84,0.31,9.68.51,14.52,0.65,0.21,5.25.38,10.51,0.65,15.75a1.53,1.53,0,0,0,3.06,0c0.17-5.22.26-10.45,0.38-15.68,5.86,0.11,11.71.06,17.57-.1,0,2.69.12,5.38,0.14,8.07a1.74,1.74,0,0,0,3.48,0c0-2.7,0-5.44.06-8.15,5.3-.19,10.6-0.53,15.9-1,0.15,2,.26,4,0.42,6,0.19,2.27,3.54,2.33,3.58,0,0-2.12,0-4.25,0-6.37,1-.09,1.91-0.14,2.87-0.24,2-.2,2.05-3.37,0-3.19-0.95.08-1.9,0.14-2.85,0.22,0-4.55.1-9.09,0.1-13.64,0.45-.08.92-0.13,1.37-0.22a1,1,0,0,0-.25-1.88l-1.1,0c0-3,0-6.08-.06-9.12l1.29-.1a1.06,1.06,0,0,0,0-2.11h-1.31c0-5.39-.06-10.77-0.15-16.16,1.08-.19,2.16-0.32,3.24-0.53a1.13,1.13,0,0,0-.3-2.2l-3,.25c-0.08-4.61-.2-9.21-0.3-13.82,1.63,0,3.26,0,4.89-.09A1.16,1.16,0,0,0,6488.55,5341.63ZM6416,5220c7.32,0.49,14.69.83,22.07,1.06q-0.07,7.93-.13,15.87l-0.31,0c-6.11.25-13.36,1.39-20.16,1.7Q6416.77,5229.28,6416,5220Zm1.67,21.39c4.89-.15,9.91-0.86,12.67-0.88,2.5,0,5,0,7.56,0q-0.06,6-.12,12c-6.43,0-12.87,0-19.3-.07C6418.23,5248.69,6417.93,5245,6417.67,5241.37Zm1,13.6c6.33,0.51,12.71,1,19.1,1.29q-0.07,6.53-.12,13.06-9,.55-18,1.27C6419.27,5265.38,6419,5260.17,6418.64,5255Zm1.75,30.36q-0.3-5.82-.63-11.63,8.88,0,17.82-.17-0.05,5.49-.1,11Q6428.92,5284.89,6420.38,5285.33Zm0.12,2.46q8.46,0,16.94,0-0.08,10.55-.11,21.1-7.94.06-15.83,0.26C6421.2,5302.06,6420.86,5294.92,6420.5,5287.79Zm1.09,23.81q7.82,0.58,15.72,1c0,4.5,0,9,0,13.49q-7.58.35-15.15,0.76Q6421.9,5319.24,6421.59,5311.6Zm0.67,17.69q7.51,0.06,15.06.08c0,4,0,8.08,0,12.12q-7.34.12-14.67,0.29Q6422.48,5335.54,6422.27,5329.3Zm0.48,14.74q7.31,0.14,14.63.23c0,5.69.12,11.38,0.2,17.06-4.76.23-9.52,0.41-14.3,0.5C6423.12,5355.9,6422.93,5350,6422.75,5344Zm0.58,19.86q7.12,0.24,14.28.22c0.07,4.27.16,8.53,0.25,12.8-4.74,0-9.47.07-14.21,0Q6423.49,5370.43,6423.33,5363.9Zm0.37,15.31q7.1,0.33,14.23.54c0.08,3.31.15,6.62,0.25,9.93-4.74.19-9.47,0.37-14.22,0.5C6423.88,5386.52,6423.78,5382.86,6423.7,5379.2Zm0.55,25.91q-0.12-5.94-.24-11.9,7.09,0.28,14.25.3c0.12,4,.29,7.91.44,11.86C6433.89,5405.36,6429.07,5405.28,6424.25,5405.11Zm16.22-184q7.37,0.18,14.72.09c0,4.89,0,9.78.06,14.67-4.8.25-9.6,0.61-14.38,0.87Q6440.67,5228.91,6440.48,5221.1Zm0.5,19.36c4.77,0,9.58-.1,14.35-0.35,0.06,4.09.11,8.19,0.2,12.29q-7.11,0-14.23,0Q6441.14,5246.43,6441,5240.46Zm0.43,16c4.73,0.21,9.47.3,14.19,0.3,0.09,3.92.22,7.84,0.33,11.76-4.72.16-9.45,0.32-14.18,0.58Q6441.57,5262.77,6441.41,5256.45Zm0.45,17c4.74-.12,9.47-0.34,14.19-0.56,0.11,3.66.19,7.33,0.32,11q-7.11.18-14.22,0.47Q6442,5278.87,6441.86,5273.42Zm0.37,14.39q7.14,0,14.27-.18,0.37,10.75.79,21.51c-4.86-.11-9.72-0.18-14.59-0.18Q6442.48,5298.38,6442.23,5287.81Zm0.56,25.08c4.89,0.24,9.78.41,14.66,0.53q0.23,6,.47,12-7.46.14-14.92,0.45C6442.93,5321.56,6442.87,5317.22,6442.79,5312.89Zm0.54,64c0-4.27,0-8.53,0-12.8,5.34-.1,10.67-0.37,16-0.74,0.15,4.44.26,8.87,0.4,13.31Zm16.52,3c0.08,2.93.19,5.86,0.26,8.79l-16.88.76c0-3.2.06-6.4,0.07-9.61Q6451.58,5380,6459.85,5379.91Zm-16.5-18.89c0-5.56,0-11.12-.09-16.69,5.13,0.05,10.26,0,15.39,0q0.3,7.77.57,15.53C6453.93,5360.3,6448.64,5360.71,6443.35,5361Zm-0.11-19.6c0-4-.12-8-0.19-12.07q7.52,0,15-.22,0.24,6.1.47,12.2C6453.44,5341.34,6448.34,5341.35,6443.24,5341.42Zm-0.27,63.94c0.08-4,.18-7.91.23-11.87,5.68-.06,11.35-0.32,17-0.71,0.09,4,.15,8.09.21,12.13C6454.59,5405.14,6448.78,5405.34,6443,5405.36Zm16.72-165.57a111.68,111.68,0,0,0,12.23-1.55c1.47-.28,1-2.41-0.34-2.49-4.06-.25-8.15-0.19-12.25,0-0.47-4.87-1-9.7-1.59-14.54,5.68-.12,11.34-0.4,16.94-0.9a1.55,1.55,0,0,0,0-3.09c-5.81-.21-11.63-0.3-17.46-0.32-0.49-4-.89-8-1.45-12,0-.32-0.54-0.23-0.54.07,0,4,0,8,0,11.93q-7.41,0-14.83,0c-0.1-4-.21-7.95-0.3-11.91a0.94,0.94,0,0,0-1.89,0c0,4-.06,8-0.09,11.93-7.45.07-14.91,0.15-22.36,0.16-0.45-5.14-.89-10.29-1.38-15.42,0.82,0.09,1.56.15,2.07,0.16q10.73,0.21,21.47.34c12.81,0.15,25.64.31,38.44-.17-0.09,16.85-.22,33.79-0.3,50.78-5.08-.19-10.17-0.33-15.25-0.37C6460.45,5248.19,6460.07,5244,6459.68,5239.79Zm1.47,16.94c5-.1,9.95-0.38,14.87-0.82q0,6.16,0,12.33c-4.7,0-9.4-.06-14.14,0C6461.62,5264.44,6461.44,5260.58,6461.16,5256.74Zm0.95,15.85c4.66-.27,9.27-0.66,13.88-1.06q0,6.09,0,12.19c-4.41-.06-8.82-0.08-13.23,0C6462.59,5280,6462.32,5276.3,6462.11,5272.59Zm0.79,14.89c4.38-.14,8.75-0.35,13.11-0.61q0,11.55.16,23.09c-4.14-.27-8.3-0.5-12.48-0.65Q6463.39,5298.39,6462.9,5287.48Zm0.89,26.07c4.16,0.05,8.31,0,12.44,0q0.08,6,.18,12c-4.13-.12-8.26-0.2-12.4-0.18C6463.94,5321.44,6463.88,5317.5,6463.79,5313.55Zm0.28,15.38c4.14-.16,8.26-0.43,12.38-0.73,0.09,4.43.22,8.84,0.33,13.26-4.18-.06-8.36-0.17-12.54-0.18C6464.2,5337.17,6464.13,5333.06,6464.07,5328.93Zm15.75,74.93c-5.22.38-10.44,0.72-15.65,1,0-4.1.06-8.19,0.09-12.3,4.94-.42,9.81-1,14.65-1.78C6479.18,5395.13,6479.5,5399.5,6479.82,5403.87Zm-1.1-15.85c-4.82.15-9.63,0.29-14.44,0.49,0-2.88,0-5.77,0-8.66,4.66-.12,9.32-0.37,14-0.69C6478.41,5382.12,6478.54,5385.07,6478.72,5388Zm-0.59-11.5c-4.61,0-9.21,0-13.82,0,0-4.54,0-9.06,0-13.61,4.38-.39,8.73-0.92,13.06-1.54C6477.61,5366.46,6477.88,5371.49,6478.13,5376.52Zm-0.85-18.09c-4.32.37-8.65,0.76-13,1.11q0-7.57-.08-15.16c4.21,0,8.41-.15,12.61-0.22C6477,5348.91,6477.11,5353.67,6477.29,5358.43Z" transform="translate(-3540.62 -4845.27)"/><path class="cls-1" d="M6310.21,5224.95c-0.15-1.21-2-1.29-2,0,1.76,64.27,6.14,128.52,8.17,192.8a1.55,1.55,0,0,0,3.09,0C6319.34,5353.79,6317.82,5288.5,6310.21,5224.95Z" transform="translate(-3540.62 -4845.27)"/><path class="cls-1" d="M6306,5387.43q-0.93-28.85-2.42-57.69c-0.89-17.8-1.84-35.6-3.07-53.37-1-14-.2-32.31-5.74-45.59a0.11,0.11,0,0,0-.22.06c4.46,30.83,3.93,63.37,5.38,94.47q1,22.18,1.94,44.37,0.45,11.1.91,22.19c0.27,6.88,4.3,22.9,2.11,28.12,0.55-1.32-1.52-2.06-2.23-.94l-0.49.78a1.33,1.33,0,0,0,.47,1.78l1,0.74a1.4,1.4,0,0,0,1.92-.5C6309.92,5412.24,6306.32,5397.64,6306,5387.43Z" transform="translate(-3540.62 -4845.27)"/><path class="cls-1" d="M6280.86,5224.85a0.83,0.83,0,0,0-1.63.22c4.8,65.32,9.64,130.21,10.65,195.75a1.33,1.33,0,0,0,2.67,0C6292.9,5355.63,6290.24,5289.43,6280.86,5224.85Z" transform="translate(-3540.62 -4845.27)"/><path class="cls-1" d="M6265.53,5228.13c-0.1-1-1.68-1.06-1.63,0,3.4,65.62,4.58,131.83,9.67,197.3a1.12,1.12,0,0,0,2.24,0C6277.42,5360.13,6271.86,5293.11,6265.53,5228.13Z" transform="translate(-3540.62 -4845.27)"/><path class="cls-1" d="M6248.87,5225a0.78,0.78,0,0,0-1.56,0c0.3,68.46,5.14,137.6,16,205.23,0.22,1.36,2.59,1.06,2.43-.33C6257.49,5361.67,6251.34,5293.76,6248.87,5225Z" transform="translate(-3540.62 -4845.27)"/><path class="cls-1" d="M6214.13,5269.94c-21.39-1-43.46-.92-64.78,1.17a0.67,0.67,0,0,0,0,1.33c21.51,0.72,43.25.51,64.78,0.39A1.45,1.45,0,0,0,6214.13,5269.94Z" transform="translate(-3540.62 -4845.27)"/><path class="cls-1" d="M6221.83,5280.86c-21-.17-42.22,2.18-63.19,3.5-1.26.08-1.28,2,0,2,21-1,42.32-.93,63.19-3.37A1.06,1.06,0,0,0,6221.83,5280.86Z" transform="translate(-3540.62 -4845.27)"/><path class="cls-1" d="M6220.27,5294.2c-23.33,1.38-46.08,1.77-69.38-.37a0.9,0.9,0,0,0-.24,1.76c22.94,3.37,46.58,4.39,69.62,1.48C6222,5296.84,6222.15,5294.09,6220.27,5294.2Z" transform="translate(-3540.62 -4845.27)"/><path class="cls-1" d="M6220.28,5311.12c-21.41-.79-43.33.59-64.7,2a0.91,0.91,0,0,0,0,1.82c21.41,0.23,43.37.38,64.7-1.59A1.12,1.12,0,0,0,6220.28,5311.12Z" transform="translate(-3540.62 -4845.27)"/><path class="cls-1" d="M6217.22,5325.47a364.47,364.47,0,0,0-64.75,2.12,0.8,0.8,0,0,0,0,1.59c21.53-.17,43.23-0.46,64.75-1.15A1.29,1.29,0,0,0,6217.22,5325.47Z" transform="translate(-3540.62 -4845.27)"/><path class="cls-1" d="M6220.3,5340.94c-14.69,0-29.4.79-44.08,1.39-4.85.2-15.81-2.09-19,2.38a0.8,0.8,0,0,0,.12,1l0.67,0.68a0.79,0.79,0,0,0,1.1,0l0.52-.47a0.74,0.74,0,0,0-.49-1.27c2.59-.67,12.72.37,14.76,0.34l13.92-.26c10.83-.21,21.67-0.36,32.48-1A1.35,1.35,0,0,0,6220.3,5340.94Z" transform="translate(-3540.62 -4845.27)"/><path class="cls-1" d="M6223.38,5361.06c-21.57.16-43.24,1.7-64.75,3.2a1.07,1.07,0,0,0,0,2.15c21.55-.55,43.27-1.08,64.75-3A1.19,1.19,0,0,0,6223.38,5361.06Z" transform="translate(-3540.62 -4845.27)"/><path class="cls-1" d="M6220.29,5382.38c-20,.33-40.14,1.4-60.12,2.36a0.67,0.67,0,0,0,0,1.33,326.63,326.63,0,0,0,60.12-1.09C6221.9,5384.79,6222,5382.35,6220.29,5382.38Z" transform="translate(-3540.62 -4845.27)"/><path class="cls-1" d="M6223.08,5398.08c-23.52,7.35-46,9.93-70.32,4.71a1,1,0,0,0-.53,1.91c23.64,5.57,48.86,5.2,71.58-4C6225.39,5400.07,6224.8,5397.54,6223.08,5398.08Z" transform="translate(-3540.62 -4845.27)"/><path class="cls-1" d="M6039.89,5026.19c-21.11,1.56-42,3.38-63.18,3.56a1.11,1.11,0,0,0,0,2.21c21.08,0.76,42.68.26,63.51-3.31C6041.61,5028.41,6041.3,5026.08,6039.89,5026.19Z" transform="translate(-3540.62 -4845.27)"/><path class="cls-1" d="M6036.8,5044.53c-18.56,1.79-36.9,2.71-55.53,1.33-1.39-.1-1.36,2,0,2.15,18.65,1.86,37.34,2,55.89-.79C6038.67,5047,6038.33,5044.39,6036.8,5044.53Z" transform="translate(-3540.62 -4845.27)"/><path class="cls-1" d="M6043,5059c-17.38-1-35.29,1.64-52.49,3.92-1.44.19-1.49,2.48,0,2.31,17.46-2,35.07-2,52.49-3.92A1.16,1.16,0,0,0,6043,5059Z" transform="translate(-3540.62 -4845.27)"/><path class="cls-1" d="M6044.55,5073.9a429.47,429.47,0,0,0-57,.88,0.78,0.78,0,0,0,0,1.56,429.47,429.47,0,0,0,57,.09A1.27,1.27,0,0,0,6044.55,5073.9Z" transform="translate(-3540.62 -4845.27)"/><path class="cls-1" d="M6043,5089.8c-19.52,0-39,1.65-58.58,1.59a1.06,1.06,0,0,0,0,2.11c19.48,0.7,39.54,1.3,58.88-1.53C6044.56,5091.79,6044.22,5089.8,6043,5089.8Z" transform="translate(-3540.62 -4845.27)"/><path class="cls-1" d="M6043,5111.22c-19,1.27-38,1.7-57,.11-1.59-.13-1.56,2.31,0,2.47,19.06,1.95,38,2.25,57-.28C6044.42,5113.34,6044.51,5111.11,6043,5111.22Z" transform="translate(-3540.62 -4845.27)"/><path class="cls-1" d="M6046.06,5133.61c-20.18-1.77-41.58,1.44-61.68,3.5-1.41.15-1.45,2.36,0,2.24,20.46-1.63,41.64-1,61.92-4C6047.36,5135.21,6047,5133.69,6046.06,5133.61Z" transform="translate(-3540.62 -4845.27)"/><path class="cls-1" d="M6044.55,5149.94c-16.94-.43-33.93.09-50.87,0.37a1.06,1.06,0,0,0,0,2.11c16.95,0.12,33.93.49,50.87-.1A1.19,1.19,0,0,0,6044.55,5149.94Z" transform="translate(-3540.62 -4845.27)"/><path class="cls-1" d="M6047.63,5168.71c-19.32-2-39.3-.35-58.6,1.24-1.05.09-1.07,1.73,0,1.66,19.58-1.37,39-.51,58.6-1A0.93,0.93,0,0,0,6047.63,5168.71Z" transform="translate(-3540.62 -4845.27)"/><path class="cls-1" d="M6048.79,5188.11a214.09,214.09,0,0,1-56.85,1.95,0.65,0.65,0,0,0-.17,1.28,128.71,128.71,0,0,0,57.66-.91C6051,5190.06,6050.29,5187.85,6048.79,5188.11Z" transform="translate(-3540.62 -4845.27)"/><path class="cls-1" d="M6046.09,5208.31c-18.5,1.83-37,2.3-55.5,3.41a1,1,0,0,0,0,2c18.52,1.34,37.49-.29,55.85-2.8C6047.87,5210.67,6047.55,5208.17,6046.09,5208.31Z" transform="translate(-3540.62 -4845.27)"/><path class="cls-1" d="M6049.18,5228.59c-20.53,0-41.16.82-61.67,1.79a1,1,0,0,0,0,2c20.53,0,41.17-.2,61.67-1.27A1.27,1.27,0,0,0,6049.18,5228.59Z" transform="translate(-3540.62 -4845.27)"/><path class="cls-1" d="M6049.16,5256.2c-21.22,1-42,1.73-63.21.44-1.14-.07-1.1,1.64,0,1.76,20.91,2.28,42.62,2.84,63.49-.09C6050.64,5258.14,6050.36,5256.15,6049.16,5256.2Z" transform="translate(-3540.62 -4845.27)"/><path class="cls-1" d="M6046.11,5286.29c-18.28-1.79-37.18-1.7-55.54-1.4a1,1,0,0,0,0,2.08c18.32,1.16,37.2,2.14,55.54,1.2A0.94,0.94,0,0,0,6046.11,5286.29Z" transform="translate(-3540.62 -4845.27)"/><path class="cls-1" d="M6055.33,5303.83c-21.05,0-42.15.69-63.21,1.08a1,1,0,0,0,0,1.92c21,0.49,42.22.6,63.21-.62A1.19,1.19,0,0,0,6055.33,5303.83Z" transform="translate(-3540.62 -4845.27)"/><path class="cls-1" d="M6039.91,5321.09c-18.62,1.28-36.87,1.77-55.49.2-1.18-.1-1.14,1.68,0,1.82,18.47,2.28,37.3,2.61,55.73-.2A0.93,0.93,0,0,0,6039.91,5321.09Z" transform="translate(-3540.62 -4845.27)"/><path class="cls-1" d="M6044.29,5342.8c-19.6,3.11-38.59,4-58.33,1.83a0.7,0.7,0,0,0-.19,1.37c19.67,3,39.56,2.91,59-1.29C6046.08,5344.44,6045.52,5342.6,6044.29,5342.8Z" transform="translate(-3540.62 -4845.27)"/><path class="cls-1" d="M6055.34,5364.2c-21.73,2.59-42.9,3.88-64.73,1.65-1.13-.12-1.1,1.62,0,1.76,21.61,2.65,43.59,3,65-1.17C6056.89,5366.19,6056.62,5364,6055.34,5364.2Z" transform="translate(-3540.62 -4845.27)"/><path class="cls-1" d="M6053.79,5387.44c-20.12.89-40,1.57-60.13,0.18-1.26-.09-1.23,1.83,0,2,20.07,1.94,40.35,2.4,60.36-.4C6055,5389,6054.76,5387.4,6053.79,5387.44Z" transform="translate(-3540.62 -4845.27)"/><path class="cls-1" d="M6056.74,5403.4c-21.29,1.06-41.73,3.58-63.13,1.69-1.11-.1-1.09,1.6,0,1.72,20.68,2.28,43,3.74,63.42-1.28A1.09,1.09,0,0,0,6056.74,5403.4Z" transform="translate(-3540.62 -4845.27)"/><path class="cls-1" d="M5961.36,5358.34c-4.33.49-8.62,0.94-12.91,1.39q0-11.2-.05-22.4c3.47-.88,6.9-1.82,10.23-2.89a1.33,1.33,0,0,0-.71-2.57c-3.2.69-6.37,1.29-9.54,1.92,0-4.45,0-8.9-.09-13.36,2.91-.51,5.81-1.08,8.68-1.76a1,1,0,0,0-.26-1.92c-2.83.21-5.63,0.47-8.44,0.71q-0.08-8.54-.19-17.09c2.47-.54,4.93-1.12,7.36-1.76,1.11-.29.93-2.23-0.28-2.08l-7.12.93q-0.11-8.8-.24-17.6a1,1,0,0,0,0-1.94q-0.09-6.28-.18-12.57c1.58-.3,3.16-0.58,4.73-0.93s0.94-2.81-.7-2.54c-1.37.22-2.71,0.37-4.07,0.57q-0.11-6.88-.22-13.76c3.27-.54,6.54-1.13,9.77-1.83a1.19,1.19,0,0,0-.32-2.33c-3.17.25-6.34,0.59-9.5,0.9q-0.25-15.62-.5-31.23a1,1,0,0,0-1.92,0q-0.08,6.3-.16,12.6a1,1,0,0,0-.36-0.15c-7.26-.17-14.52-0.13-21.79,0-0.16-4.54-.28-9.08-0.45-13.62,9,0.06,17.93.16,26.92,0.22,1.95,0,1.9-2.84,0-3-9-.72-18-0.9-27-0.83,0-1-.06-2-0.1-2.95a1,1,0,0,0-1.92,0c0,1,0,2,0,2.95-11.91.15-23.84,0.79-35.68,1.74-0.06-4.64-.06-9.3-0.13-13.93a0.76,0.76,0,0,0-1.53,0c-0.29,4.7-.52,9.43-0.77,14.14-2.29.19-4.58,0.38-6.86,0.58-1.17.1-1.2,1.92,0,1.85,2.25-.13,4.49-0.17,6.74-0.27-0.24,4.6-.5,9.19-0.71,13.79-1.5,0-3,0-4.51,0a1,1,0,0,0,0,2l4.43,0.2q-0.77,17.23-1.21,34.52c-0.55-.07-1.09-0.11-1.63-0.19-0.91-.13-1.33,1.25-0.39,1.41,0.66,0.11,1.32.19,2,.29-1.29,49.24-.84,98.73,1,147.57a1.3,1.3,0,0,0,2.6,0c0-1.43,0-2.87.06-4.3a0.83,0.83,0,0,0,.86.76c4,0.11,8.17.13,12.3,0.15,0.13,6.79.26,13.58,0.43,20.34a1.3,1.3,0,0,0,2.6,0c0.32-6.74.6-13.52,0.87-20.29,7.19,0,14.44-.25,21.67-0.61,0.32,11.61.6,23.22,1,34.81a1.56,1.56,0,0,0,3.12,0c0-11.65-.06-23.33-0.11-35,6.1-.37,12.14-0.92,18.11-1.57,0.11,5.5.2,11,.34,16.51a1.63,1.63,0,0,0,3.25,0c0.13-5.64.2-11.29,0.29-16.93,0.8-.1,1.62-0.16,2.42-0.27a1.14,1.14,0,0,0,0-2.28c-0.78,0-1.59,0-2.38,0q0.1-7.12.17-14.25c2.89-.7,5.76-1.48,8.59-2.4a1.12,1.12,0,0,0-.6-2.16c-2.68.56-5.32,1-8,1.48q0-4.47.07-8.94a113.68,113.68,0,0,0,11.41-3.34,0.9,0.9,0,0,0-.48-1.72c-3.67.64-7.28,1.19-10.91,1.77q0-5.85,0-11.7c4.44-.71,8.85-1.51,13.21-2.52C5962.91,5360.32,5962.67,5358.2,5961.36,5358.34Zm-77.14,49.34a1,1,0,0,0-.85.83q0.35-21.37.62-42.78c4,0.2,8,.34,12.06.43,0,4.47,0,8.93.06,13.39-2.44,0-4.89-.08-7.37-0.21-1.15-.06-1.1,1.64,0,1.76,2.44,0.27,4.91.47,7.39,0.66,0,3.17.07,6.34,0.11,9.51-2-.11-3.92-0.21-5.91-0.39-1.34-.12-1.31,1.94,0,2.08,2,0.22,4,.37,5.93.54,0.06,4.3.1,8.61,0.18,12.9C5892.34,5406.81,5888.24,5407.2,5884.22,5407.69Zm12-86.45c-2.47,0-4.94.08-7.42,0.05a1.07,1.07,0,0,0,0,2.15c2.45,0.06,4.92.11,7.4,0.15q-0.11,9.07-.15,18.15c-2.41.25-4.79,0.54-7.23,0.76a0.67,0.67,0,0,0,0,1.33c2.38,0.1,4.79.13,7.21,0.14q0,9.75,0,19.48c-4,0-8,.05-12,0q0.36-28.45.54-56.92c4-.05,8-0.16,12-0.29C5896.44,5311.19,5896.32,5316.21,5896.25,5321.23Zm0.33-17.89c-4,.29-8,0.61-12,0.75,0-5.64,0-11.27,0-16.91,4.1,0,8.23-.2,12.36-0.39Q5896.74,5295.07,5896.58,5303.34Zm0.45-19.18c-4.14.41-8.27,0.82-12.44,1.16q0-9.52,0-19c4.28,0.59,8.58,1,12.88,1.39C5897.32,5273.16,5897.18,5278.66,5897,5284.16Zm1.11-33.43c-3.61.33-7.22,0.7-10.84,0.94-1.45.1-1.47,2.35,0,2.28l10.74-.53c-0.16,4-.33,8.08-0.47,12.13-4.3-.19-8.61-0.48-13-0.94q0-17.48-.18-34.94c4.85,0.21,9.71.41,14.59,0.57Q5898.54,5240.47,5898.14,5250.73Zm1-23.56c-4.92.1-9.84,0.17-14.76,0.18q-0.06-6.94-.13-13.89c5.2-.2,10.39-0.32,15.58-0.39C5899.61,5217.76,5899.4,5222.47,5899.18,5227.17Zm22.11,151.23c-6.55.61-13.12,1.08-19.79,1.16,0.13-4.42.24-8.85,0.35-13.28q9.6,0.09,19.22-.36C5921.14,5370.08,5921.19,5374.24,5921.28,5378.4Zm-19-128q-0.18-10-.43-20.06,9,0.25,18.08.14,0,9,0,18C5914,5249.12,5908.14,5249.79,5902.26,5250.37Zm17.61,1.63c0,4.46,0,8.92,0,13.38-5.77.31-11.54,0.48-17.33,0.36-0.05-4.19-.14-8.36-0.21-12.54Q5911.07,5252.72,5919.87,5252Zm1.12,110.29c-6.35.46-12.7,0.85-19.08,1q0.23-9.73.41-19.47c6.07-.17,12.2-0.71,18.32-1.42Q5920.79,5352.36,5921,5362.29Zm-0.43-23.64c-6,.89-12.1,1.72-18.21,2.42,0.09-5.81.18-11.62,0.23-17.43,5.89,0,11.81-.07,17.72-0.32C5920.37,5328.43,5920.49,5333.54,5920.56,5338.65Zm-0.28-18.74c-5.87.47-11.75,0.89-17.66,1.12,0-5,0-10.06.05-15.09,5.83-.28,11.67-0.74,17.49-1.31C5920.21,5309.72,5920.22,5314.82,5920.28,5319.91Zm-0.15-18.82c-5.81.69-11.62,1.34-17.45,1.85q0-8.23,0-16.44c5.79-.38,11.57-1,17.34-1.68Q5920,5293,5920.13,5301.1Zm-0.16-19.57c-5.77.73-11.54,1.45-17.33,2.07,0-5.18,0-10.36-.1-15.54,5.77,0.34,11.55.35,17.32,0.2C5919.88,5272.67,5919.95,5277.1,5920,5281.52Zm0-68.47c0,4.55,0,9.11,0,13.67-6.06.11-12.12,0.26-18.18,0.39-0.13-4.69-.23-9.38-0.38-14.06C5907.55,5213,5913.74,5213,5919.94,5213.06Zm-18.53,169a191.82,191.82,0,0,0,19.94,0c0.07,2.94.15,5.88,0.22,8.82a187,187,0,0,1-20.47.61C5901.2,5388.35,5901.31,5385.22,5901.41,5382.08Zm-0.82,23.9c0.16-4,.29-8.09.43-12.14a185.66,185.66,0,0,0,20.64.12c0.09,3.55.21,7.1,0.3,10.65C5914.82,5404.91,5907.66,5405.35,5900.59,5406Zm22.07-175.54c7.26-.15,14.5-0.54,21.67-1.31a1.11,1.11,0,0,0,.33-0.17q-0.11,8.39-.21,16.78-10.61,1.08-21.2,2.32Q5923,5239.24,5922.66,5230.44Zm0.71,21.25c7.05-.63,14.08-1.44,21-2.51q-0.09,6.88-.17,13.77c-6.85.95-13.65,1.74-20.42,2.21C5923.69,5260.66,5923.5,5256.18,5923.37,5251.69Zm0.52,16.42a178.8,178.8,0,0,0,20.31-2.11q-0.07,6.11-.13,12.23c-6.63,1-13.26,1.93-19.87,2.8C5924.08,5276.72,5924,5272.41,5923.89,5268.11Zm0.76,32.44q-0.18-8.12-.38-16.25c6.67-.93,13.26-2.14,19.77-3.57q-0.09,8.65-.17,17.3C5937.46,5298.88,5931,5299.75,5924.65,5300.55Zm0.08,3.59q9.63-1.1,19.11-2.92-0.07,8.32-.13,16.64c-6.22.55-12.42,1.12-18.62,1.66C5925,5314.39,5924.85,5309.26,5924.73,5304.14Zm0.44,18.92c6.22-.38,12.4-1,18.52-1.91,0,4.53,0,9.06,0,13.59-6.09,1.15-12.17,2.22-18.26,3.18C5925.32,5333,5925.27,5328,5925.18,5323.06Zm0.54,38.85q-0.12-10.06-.27-20.12c6.14-.85,12.23-2,18.2-3.31q0,10.89,0,21.77Q5934.68,5361.17,5925.72,5361.92Zm18.42,42.41c-6-.1-12-0.09-18.06.1,0-3.6,0-7.19,0-10.78a145.49,145.49,0,0,0,17.88-2.54Q5944,5397.71,5944.15,5404.32Zm-0.25-16.43c-6,1-11.91,1.93-17.86,2.54,0-2.9,0-5.8-.06-8.7a148.43,148.43,0,0,0,17.82-2.52Q5943.84,5383.55,5943.9,5387.89Zm-0.14-12.31c-6,.9-11.89,1.71-17.83,2.35,0-4.09-.12-8.18-0.16-12.27,6-.39,12-1,17.92-1.78Q5943.72,5369.73,5943.76,5375.58Z" transform="translate(-3540.62 -4845.27)"/><path class="cls-1" d="M5725.42,5171.52a308.07,308.07,0,0,0-43.22,2.77c-1.22.15-1.26,2.08,0,2,14.37-1.42,28.79-2,43.22-2.54A1.09,1.09,0,0,0,5725.42,5171.52Z" transform="translate(-3540.62 -4845.27)"/><path class="cls-1" d="M5728.5,5182.46c-12.34.91-24.62,1.82-37,1.46a1,1,0,0,0,0,2c12.5,0.71,24.9.57,37.25-1.66A1,1,0,0,0,5728.5,5182.46Z" transform="translate(-3540.62 -4845.27)"/><path class="cls-1" d="M5728.5,5199c-11.3.06-22.64,1.2-33.91,1.94a0.89,0.89,0,0,0,0,1.79c11.28-.38,22.67-0.36,33.91-1.42A1.16,1.16,0,0,0,5728.5,5199Z" transform="translate(-3540.62 -4845.27)"/><path class="cls-1" d="M5728.49,5213c-5.25.66-10.52,1.23-15.8,1.47-5.09.23-12.14,1-17-.6,0.84,0.28,1.45-1.1.61-1.46-2.8-1.2-3.14,1.94-1.32,3.52,2.72,2.36,11.76,1.27,15.11,1.26a105.37,105.37,0,0,0,18.78-1.76C5730.18,5215.15,5729.88,5212.79,5728.49,5213Z" transform="translate(-3540.62 -4845.27)"/><path class="cls-1" d="M5730,5226.94a225.74,225.74,0,0,1-35.46-1.4,1,1,0,0,0-.27,2,153.78,153.78,0,0,0,35.73,1.72C5731.53,5229.16,5731.57,5226.9,5730,5226.94Z" transform="translate(-3540.62 -4845.27)"/><path class="cls-1" d="M5726.64,5239.25a65.62,65.62,0,0,1-35-2.51c-1.31-.47-1.84,1.58-0.57,2.07a60.18,60.18,0,0,0,36.19,2.63C5728.68,5241.1,5728.06,5239,5726.64,5239.25Z" transform="translate(-3540.62 -4845.27)"/><path class="cls-1" d="M5728.1,5254.32a86.9,86.9,0,0,1-33.38-.42,1,1,0,0,0-.54,2,73.85,73.85,0,0,0,34.6.89C5730.39,5256.41,5729.68,5254,5728.1,5254.32Z" transform="translate(-3540.62 -4845.27)"/><path class="cls-1" d="M5737.43,5276.23a95.11,95.11,0,0,1-39.63-.77,1,1,0,0,0-.51,1.85,82.68,82.68,0,0,0,40.74,1.08C5739.44,5278.07,5738.83,5276,5737.43,5276.23Z" transform="translate(-3540.62 -4845.27)"/><path class="cls-1" d="M5726.73,5296.66a82,82,0,0,1-27.52,1.44,0.93,0.93,0,0,0-.25,1.82,74.91,74.91,0,0,0,28.3-1.32A1,1,0,0,0,5726.73,5296.66Z" transform="translate(-3540.62 -4845.27)"/><path class="cls-1" d="M5736.3,5317c-14.11.7-27.63,1.66-41.73-.08a0.75,0.75,0,0,0-.2,1.47c13.78,2.25,28.42,3.5,42.24.88A1.16,1.16,0,0,0,5736.3,5317Z" transform="translate(-3540.62 -4845.27)"/><path class="cls-1" d="M5732.85,5333.46a198.23,198.23,0,0,1-21.23,2.43c-5,.2-14.94,1.33-19.58-0.87a0.67,0.67,0,0,0,.67-1.15l-0.7-.4a0.7,0.7,0,0,0-.84.11l-0.64.81a0.76,0.76,0,0,0-.12.9c2.58,3.66,11.14,2.88,15,3a91.31,91.31,0,0,0,28-2.8A1.07,1.07,0,0,0,5732.85,5333.46Z" transform="translate(-3540.62 -4845.27)"/><path class="cls-1" d="M5736.22,5352.2c-13.81,1-27.52,1.77-41.37,1.92a0.38,0.38,0,0,0-.27.65,26.8,26.8,0,0,1,3,2.89,0.08,0.08,0,0,0,.12-0.12c-2.93-3.46,8.87-2,9.89-2q4.78,0.08,9.56-.05a177.81,177.81,0,0,0,19.3-1.56C5737.43,5353.79,5737.21,5352.12,5736.22,5352.2Z" transform="translate(-3540.62 -4845.27)"/><path class="cls-1" d="M5734.37,5367.3a220.28,220.28,0,0,1-36.7,4.88,0.94,0.94,0,0,0,0,1.89,160.33,160.33,0,0,0,37.26-4.73A1.06,1.06,0,0,0,5734.37,5367.3Z" transform="translate(-3540.62 -4845.27)"/><path class="cls-1" d="M5739.28,5387.24c-15.08,2-29.57,2.32-44.53-.88a1,1,0,0,0-.54,1.94c14.93,3.58,30.3,4.52,45.36,1.14C5740.79,5389.17,5740.55,5387.07,5739.28,5387.24Z" transform="translate(-3540.62 -4845.27)"/><path class="cls-1" d="M5740.85,5407.92c-15.26-.89-31,1-46.25,1.63a0.86,0.86,0,0,0,0,1.72c15.28-.28,31.08.59,46.25-1.24A1.06,1.06,0,0,0,5740.85,5407.92Z" transform="translate(-3540.62 -4845.27)"/><path class="cls-1" d="M5253.53,5407.41c-27.88,1.38-55.24,2.18-83.14.4-1.25-.08-1.21,1.79,0,1.92,27.47,2.83,55.69,3.51,83.14.06C5255,5409.6,5255.1,5407.33,5253.53,5407.41Z" transform="translate(-3540.62 -4845.27)"/><path class="cls-1" d="M5250.64,5395.68c-11.95,1-23.86,2.26-35.82,3.08s-31.76,4.58-42.6-1.61a0.8,0.8,0,0,0-.8,1.38c10,5.9,23.29,3.29,34.42,2.81,15.06-.64,30.12-1.66,45-3.81A1,1,0,0,0,5250.64,5395.68Z" transform="translate(-3540.62 -4845.27)"/><path class="cls-1" d="M5253.61,5376.34c-25.76,2.43-51.1,6-77,6.76a0.94,0.94,0,0,0,0,1.89c25.65-.2,52.16-1.22,77.28-6.76A1,1,0,0,0,5253.61,5376.34Z" transform="translate(-3540.62 -4845.27)"/><path class="cls-1" d="M5250.29,5358c-24.25,4-47.81,5.1-72.24,2.39a0.82,0.82,0,0,0-.22,1.6c24.27,3.73,49,3.35,73-2.17C5252,5359.57,5251.46,5357.83,5250.29,5358Z" transform="translate(-3540.62 -4845.27)"/><path class="cls-1" d="M5253.64,5344c-28.92,1.36-57.34,3.51-86.33,2.15-1.51-.07-1.5,2.26,0,2.34,28.66,1.63,58.19,2.18,86.61-2.48A1,1,0,0,0,5253.64,5344Z" transform="translate(-3540.62 -4845.27)"/><path class="cls-1" d="M5259.89,5324.55c-29.36,3.51-58.33,7.05-87.93,7.64a0.93,0.93,0,0,0,0,1.85c29.44-.19,59.27-1.71,88.2-7.48C5261.28,5326.34,5261,5324.42,5259.89,5324.55Z" transform="translate(-3540.62 -4845.27)"/><path class="cls-1" d="M5255.15,5305.44c-27.8,3-55.27,7.64-83.19,10a0.78,0.78,0,0,0,0,1.56c27.24-.06,57.14-2.17,83.46-9.59C5256.5,5307.15,5256.34,5305.32,5255.15,5305.44Z" transform="translate(-3540.62 -4845.27)"/><path class="cls-1" d="M5247.51,5283.94c-25.72,2-51.32,5-77.09,6.77a0.8,0.8,0,0,0,0,1.59c25.48,0.66,52.42-.67,77.43-5.87A1.27,1.27,0,0,0,5247.51,5283.94Z" transform="translate(-3540.62 -4845.27)"/><path class="cls-1" d="M5252.08,5268.28c-25.2,1.86-50.2,4-75.51,4a0.78,0.78,0,0,0,0,1.56c25.27,0.65,50.76.32,75.8-3.39C5253.6,5270.27,5253.32,5268.19,5252.08,5268.28Z" transform="translate(-3540.62 -4845.27)"/><path class="cls-1" d="M5249,5251.4c-27.76,1.29-55.42,4.27-83.21,5.41a0.85,0.85,0,0,0,0,1.69c27.77-.6,56-1.14,83.5-5C5250.5,5253.34,5250.21,5251.34,5249,5251.4Z" transform="translate(-3540.62 -4845.27)"/><path class="cls-1" d="M5241.33,5237.44c-25.66-.18-51.44,1-77.08,2a0.85,0.85,0,0,0,0,1.69c25.66,0,51.45.1,77.08-1.09A1.29,1.29,0,0,0,5241.33,5237.44Z" transform="translate(-3540.62 -4845.27)"/><path class="cls-1" d="M5245.6,5219.06c-26.3,4.2-51.7,6.56-78.29,3.86-0.95-.1-0.91,1.34,0,1.46,26.22,3.44,53.16,3.53,78.93-3C5247.77,5221,5247.09,5218.82,5245.6,5219.06Z" transform="translate(-3540.62 -4845.27)"/><path class="cls-1" d="M5249.1,5204.36c-23.71.79-47.23,3.24-71,3.53a1,1,0,0,0,0,2.08c23.36,1.21,48.3,1.28,71.3-3.38A1.14,1.14,0,0,0,5249.1,5204.36Z" transform="translate(-3540.62 -4845.27)"/><path class="cls-1" d="M5242.87,5185.38c-22-2.4-45.79-1.07-67.86.75a0.81,0.81,0,0,0,0,1.63c22.32,0.59,45.61,1.67,67.86,0A1.2,1.2,0,0,0,5242.87,5185.38Z" transform="translate(-3540.62 -4845.27)"/><path class="cls-1" d="M5242.9,5178.28c-21.72-1.43-43.75-.9-65.39-3.26a0.77,0.77,0,0,0,.2-1.5l-0.94-.19a0.83,0.83,0,0,0-.91.37l-0.52,1.06a0.94,0.94,0,0,0,.14,1.1c4.29,4.42,17.25,2.66,22.81,3,14.84,1,29.73,2.07,44.61,2.27C5244.78,5181.2,5244.74,5178.4,5242.9,5178.28Z" transform="translate(-3540.62 -4845.27)"/><path class="cls-1" d="M4666.26,5374.42c-40.07,1.36-80.12,4.54-120.17,6.6a1.07,1.07,0,0,0,0,2.15c40-1.4,80.26-2.49,120.17-6.15C4667.9,5376.87,4668,5374.36,4666.26,5374.42Z" transform="translate(-3540.62 -4845.27)"/><path class="cls-1" d="M4662.72,5343.3c-35.12,6.12-70.23,11-105.84,13a1,1,0,0,0,0,2.08c35.85-1.29,71.43-5,106.48-12.77C4664.89,5345.28,4664.22,5343,4662.72,5343.3Z" transform="translate(-3540.62 -4845.27)"/><path class="cls-1" d="M4661.66,5322.44c-33.93,2.22-67.75,5.71-101.71,7.6a0.91,0.91,0,0,0,0,1.82c33.93-1.12,68-2.48,101.71-6.89C4663.23,5324.77,4663.33,5322.33,4661.66,5322.44Z" transform="translate(-3540.62 -4845.27)"/><path class="cls-1" d="M4661.63,5294.48c-34.43,2.7-68.73,5.81-103.24,7.33a0.94,0.94,0,0,0,0,1.89c34.58-.57,69.27-2.23,103.55-6.92C4663.24,5296.6,4662.94,5294.38,4661.63,5294.48Z" transform="translate(-3540.62 -4845.27)"/><path class="cls-1" d="M4655.48,5268.36c-33,3.91-65.48,5.88-98.65,3.61-1.22-.08-1.2,1.78,0,1.89,33,2.83,66.24,2.55,99-3C4657.18,5270.58,4656.88,5268.19,4655.48,5268.36Z" transform="translate(-3540.62 -4845.27)"/><path class="cls-1" d="M4649.31,5232.82c-31.86,1.71-63.82,3.82-95.55,7.13-0.92.1-1,1.5,0,1.46,31.87-1.09,63.78-3.4,95.55-6.08C4650.9,5235.19,4650.94,5232.73,4649.31,5232.82Z" transform="translate(-3540.62 -4845.27)"/><path class="cls-1" d="M4647.77,5205.06c-31.87,2.42-63.6,4.39-95.58,4.26a0.83,0.83,0,0,0,0,1.66c31.89,1,63.87.5,95.58-3.28C4649.41,5207.5,4649.49,5204.93,4647.77,5205.06Z" transform="translate(-3540.62 -4845.27)"/><path class="cls-1" d="M4643.15,5180.42c-31.91,1.36-63.63,2.8-95.58,2.36a1,1,0,0,0,0,2c31.8,1.36,63.89,1.42,95.58-1.78C4644.74,5182.79,4644.81,5180.35,4643.15,5180.42Z" transform="translate(-3540.62 -4845.27)"/><path class="cls-1" d="M4638.53,5152.85c-30.32.61-60.62,2.1-90.95,2.75a0.85,0.85,0,0,0,0,1.69c30.32,0,60.69-.13,90.95-2.23A1.11,1.11,0,0,0,4638.53,5152.85Z" transform="translate(-3540.62 -4845.27)"/><path class="cls-1" d="M4657,5131.05c-33.43,0-66.8.12-100.21-1a1.07,1.07,0,0,0,0,2.15c33.36,2,66.81,3,100.21,1.63A1.38,1.38,0,0,0,4657,5131.05Z" transform="translate(-3540.62 -4845.27)"/><path class="cls-1" d="M4643.16,5111.12c-30.73-.29-61.81.6-92.48,2.55a1,1,0,0,0,0,2c30.73,0.49,61.8-.11,92.48-1.87A1.35,1.35,0,0,0,4643.16,5111.12Z" transform="translate(-3540.62 -4845.27)"/><path class="cls-1" d="M4644.7,5083.47c-31.23-1.28-62.8.68-94,1.54a1.09,1.09,0,0,0,0,2.18c31.25-.17,62.87.76,94-1.54A1.09,1.09,0,0,0,4644.7,5083.47Z" transform="translate(-3540.62 -4845.27)"/><path class="cls-1" d="M4632.8,5067.17a344,344,0,0,0-41.63-4.28c-11.69-.58-27.19-3.32-38.43.3a0.94,0.94,0,0,0-.67.88l-0.09,1.33a0.81,0.81,0,0,0,.41.71l1,0.57a0.75,0.75,0,0,0,.75-1.29c1.52,1.13,15.61-.76,19.23-0.61q10.37,0.45,20.73,1.24c12.8,1,25.55,2.46,38.34,3.54C4633.84,5069.68,4634.16,5067.4,4632.8,5067.17Z" transform="translate(-3540.62 -4845.27)"/><path class="cls-1" d="M4643.16,5045c-29.69-2.2-59.7-1.13-89.41.29a1,1,0,0,0,0,2c29.83-.69,59.59.42,89.41,0.39A1.32,1.32,0,0,0,4643.16,5045Z" transform="translate(-3540.62 -4845.27)"/><path class="cls-1" d="M4646.25,5018.72c-27.74-.15-55.54,1-83.25,2.09a0.88,0.88,0,0,0,0,1.76c27.73,0.07,55.55.19,83.25-1A1.43,1.43,0,0,0,4646.25,5018.72Z" transform="translate(-3540.62 -4845.27)"/><path class="cls-1" d="M4647.79,4993.94a671,671,0,0,0-84.77,3.59c-1.35.14-1.39,2.25,0,2.15,28.25-2,56.46-2.77,84.77-3.1A1.32,1.32,0,0,0,4647.79,4993.94Z" transform="translate(-3540.62 -4845.27)"/><path class="cls-1" d="M4644.75,4975.17c-30.65-3.6-61.75-3.85-92.54-2.12a0.85,0.85,0,0,0,0,1.69c31-.7,61.63.73,92.54,2.87C4646.34,4977.72,4646.27,4975.35,4644.75,4975.17Z" transform="translate(-3540.62 -4845.27)"/><path class="cls-1" d="M4635.46,4952.31a638.43,638.43,0,0,0-78.62-3.51,0.6,0.6,0,0,0,0,1.2c26.25,1.32,52.41,2.91,78.62,4.88C4637.13,4955,4637.08,4952.48,4635.46,4952.31Z" transform="translate(-3540.62 -4845.27)"/><path class="cls-1" d="M4640.36,4931.42c-17.44-3.7-35.49-4.86-53.28-4.93-11.66-.05-31.94-2.65-41.94,4.1a1.1,1.1,0,0,0-.49,1.2l0.37,1.68a1,1,0,0,0,1.88-.25c-0.81-8.28,86,.41,93.05,1.22C4641.66,4934.62,4642,4931.78,4640.36,4931.42Z" transform="translate(-3540.62 -4845.27)"/><path class="cls-1" d="M4645.06,4917.05c-32.07-4.33-65.17-4.21-97.49-4.4a1.17,1.17,0,0,0,0,2.34c32.43,0.69,64.73,3.93,97.11,4.8C4646.22,4919.84,4646.65,4917.27,4645.06,4917.05Z" transform="translate(-3540.62 -4845.27)"/><path class="cls-1" d="M4367.17,5314.51l-2.26.28c-0.17-7.89-.49-15.77-0.93-23.63l0.47-.1a1.11,1.11,0,0,0-.29-2.17l-0.31,0q-0.58-9.71-1.52-19.35l0.63-.07c1.62-.22,1.25-3-0.39-2.87l-0.53,0c-0.79-7.62-1.75-15.21-3-22.73,1.17-.1,2.34-0.12,3.5-0.24,2-.2,2.07-3.13,0-3.15-1.33,0-2.66.05-4,.06,0-.22-0.06-0.44-0.1-0.66-0.25-1.48-2.42-.82-2.23.61v0.08q-9.63.16-19.29,0.81c0-3.91.06-7.82,0.14-11.74a0.85,0.85,0,0,0-1.69,0c-0.18,3.95-.35,7.92-0.53,11.88-6,.41-12.06.85-18.05,1.19-0.49,0-1.11,0-1.7,0a0.89,0.89,0,0,0-.69,0c-6.39-.13-17.26-1.3-20.85,2.65a1.06,1.06,0,0,0,0,1.46l0.67,0.78a1,1,0,0,0,1.22.16l0.63-.46c1-.74.08-2.44-1-1.71,2.1-1.41,13.09.22,16.64,0.1l2.09-.07c-0.25,8.09-.4,16.17-0.49,24.27-6.7.27-13.42,0.44-20.17,0.38a1,1,0,0,0,0,2c6.7,0.13,13.42.21,20.15,0.19q-0.11,11.92-.06,23.85c-6.3,1.16-12.58,2.31-18.83,3.33-1.57.26-.89,2.62,0.66,2.38,6-.9,12.09-1.7,18.19-2.48q0.07,10.67.24,21.34c-6.31.61-12.64,1.12-19,1.47q-1.78-41-3.71-81.93a0.85,0.85,0,0,0-1.69,0c-0.31,27.3.19,54.75,1.4,82.15l-0.41,0a1.25,1.25,0,0,0,0,2.5h0.53q0.62,13.47,1.47,26.93l-0.45,0c-1.47.14-1.53,2.4,0,2.34l0.59,0q0.62,9.57,1.35,19.12c-1.17.06-2.33,0.15-3.5,0.2a1,1,0,0,0,0,2c1.21,0,2.43-.1,3.65-0.14q0.76,9.76,1.64,19.49c-1.77.15-3.52,0.33-5.29,0.48a0.7,0.7,0,0,0,0,1.4c2.11,0.1,4.24.13,6.36,0.16a1.08,1.08,0,0,0,.37,0c7,0.11,14-.17,21-0.72,0.47,1.78.92,3.59,1.26,5.55-0.27-1.53-2.57-1.09-2.62.35l-0.11,3.16c-0.08,2.14,3.42,2.14,3.32,0-0.14-3.06-.23-6.12-0.36-9.18,5-.43,10-1.06,15-1.78q0.36,5.72.8,11.41a371.58,371.58,0,0,1-45.12,3.21,1,1,0,0,0,0,1.92,274.52,274.52,0,0,0,45.36-1.7c0.06,0.75.09,1.5,0.16,2.25,0.16,1.83,2.89,1.89,2.89,0,0-.89,0-1.78,0-2.67,7.15-1,14.26-2.27,21.29-4,1.67-.4.94-2.82-0.7-2.54-6.89,1.17-13.75,2.18-20.6,3.09q0-5.82,0-11.64c7.62-1.22,15.13-2.8,22.51-4.62,0,1.27,0,2.54.06,3.81a1.59,1.59,0,0,0,3.19,0c0-1.53.06-3.07,0.1-4.6,0.55-.14,1.12-0.25,1.66-0.4a1.24,1.24,0,0,0-.66-2.38l-1,.18q0.2-9.58.38-19.24c0.4-.1.8-0.17,1.2-0.27,1.66-.42.95-2.85-0.7-2.54l-0.45.08q0.19-10.78.26-21.61c0.78-.28,1.58-0.52,2.36-0.81a1.22,1.22,0,0,0-.65-2.35l-1.69.33c0-7.27,0-14.54-.12-21.82,0.85-.19,1.71-0.36,2.55-0.56C4368.93,5316.76,4368.67,5314.33,4367.17,5314.51Zm-72.53,10.5c6.28-.16,12.6-0.39,18.94-0.74,0,0.09,0,.17,0,0.26,0.14,8.21.39,16.41,0.62,24.62-6.09,1-12.21,1.82-18.42,2.49Q4295.22,5338.33,4294.64,5325Zm1.26,29.2c6.06-.3,12.22-0.73,18.4-1.35,0.08,2.55.11,5.1,0.19,7.65,0.12,3.73.28,7.46,0.42,11.2-6,.67-12.09,1.24-18.18,1.62Q4296.32,5363.78,4295.9,5354.22Zm1.75,40.67q-0.42-9.7-.84-19.4,9.09-.38,18.19-1.09c0.11,2.87.2,5.74,0.32,8.62a45.52,45.52,0,0,0,1.65,10Q4307.36,5394,4297.66,5394.88Zm18.84-99.14q-0.21-11.63-.39-23.27c5.86,0,11.72-.21,17.57-0.47q-0.36,10.39-.62,20.81Q4324.76,5294.21,4316.49,5295.74Zm16.45,1.18q-0.25,10.9-.35,21.8c-5.2.62-10.4,1.28-15.62,1.81-0.16-7.13-.28-14.26-0.42-21.39Q4324.75,5298.09,4332.94,5296.92Zm-15.9,27.13c5.18-.32,10.35-0.77,15.52-1.29q-0.07,11.55.07,23.08c-5,.94-9.93,1.85-14.91,2.68C4317.49,5340.37,4317.23,5332.21,4317,5324.06Zm0.78,28.41c5-.55,9.95-1.27,14.9-2.1,0.1,6.3.24,12.6,0.46,18.89-4.91.73-9.83,1.41-14.77,2Q4318.09,5361.87,4317.83,5352.47Zm1.42,40.24q-0.38-9.32-.72-18.63c4.94-.44,9.87-1,14.8-1.64,0.23,6.15.49,12.29,0.85,18.41C4329.21,5391.52,4324.23,5392.15,4319.25,5392.7Zm14.55-124c-5.91.4-11.81,0.81-17.73,1.08q-0.18-12.09-.34-24.19l13.83-.47c1.73-.06,3.46-0.1,5.2-0.15Q4334.23,5256.86,4333.8,5268.75Zm3.14-23.79c6.58-.16,13.17-0.41,19.72-0.86,1,7.59,1.68,15.19,2.25,22.8-7.36.57-14.71,1.15-22.05,1.67Q4336.83,5256.76,4336.94,5245Zm-0.08,26.9q11.18-.58,22.26-1.94,0.66,9.67,1,19.35c-7.71.65-15.42,1.64-23.12,2.88Q4336.92,5282,4336.87,5271.86Zm0.2,24.46c7.82-1.18,15.56-2.61,23.19-4.35q0.38,11.66.49,23.33l-23.36,2.87Q4337.21,5307.25,4337.07,5296.32Zm23.87,90.19q-11.26,2.14-22.49,3.74-0.07-9.25-.2-18.5c7.56-1.09,15.06-2.53,22.5-4.23Q4360.78,5377,4360.94,5386.51Zm-0.19-21.9c-7.52,1.37-15,2.72-22.54,3.89q-0.13-9.54-.3-19.08a196.1,196.1,0,0,0,22.86-5.64Q4360.74,5354.19,4360.75,5364.61Zm0-24.28c-7.68,1.51-15.33,3-22.94,4.52q-0.19-11.31-.39-22.62c7.85-.91,15.65-2.08,23.32-3.64Q4360.84,5329.45,4360.79,5340.32Z" transform="translate(-3540.62 -4845.27)"/><path class="cls-1" d="M3989.46,5410c-8,.35-15.87,1.11-23.8,1.88-2.37.23-20.71,3.65-22,2.1a0.7,0.7,0,0,0,1.1-.85l-0.38-.56a0.75,0.75,0,0,0-.83-0.34c-1.16.35-1.24,0.32-1.73,1.44a0.93,0.93,0,0,0,.14,1.08c3.61,3.71,11.93,1,16.38.62,10.39-.77,20.79-1.46,31.12-2.81C3991,5412.35,3991.15,5409.91,3989.46,5410Z" transform="translate(-3540.62 -4845.27)"/><path class="cls-1" d="M3987.72,5392.29c-17,2.63-33.27,3.52-50.32,1.09-1.34-.19-1.95,1.83-0.57,2.07,17.07,3,34.61,3.18,51.49-1C3989.74,5394.1,3989.11,5392.08,3987.72,5392.29Z" transform="translate(-3540.62 -4845.27)"/><path class="cls-1" d="M3992.29,5367.4c-17.47,2.4-34.49,4-52.12,3.18-1.09-.05-1.08,1.62,0,1.69,17.58,1.22,35.43.91,52.74-2.64C3994.39,5369.32,3993.72,5367.2,3992.29,5367.4Z" transform="translate(-3540.62 -4845.27)"/><path class="cls-1" d="M3988,5344.37c-16,1.53-31.76,3.87-47.81,4.7a0.78,0.78,0,0,0,0,1.56c16-.43,32.35-1.1,48.08-4.28A1,1,0,0,0,3988,5344.37Z" transform="translate(-3540.62 -4845.27)"/><path class="cls-1" d="M3980.21,5325.15c-16.46,1.51-32.75,3.41-49.3,3.86a0.93,0.93,0,0,0,0,1.85c16.52,0,33.32-.43,49.66-3C3982.08,5327.6,3981.74,5325,3980.21,5325.15Z" transform="translate(-3540.62 -4845.27)"/><path class="cls-1" d="M3980.25,5305.9c-15.92,0-31.88,1.14-47.8,1.72a1,1,0,0,0,0,2c15.91-.38,31.9-0.24,47.8-1.17A1.25,1.25,0,0,0,3980.25,5305.9Z" transform="translate(-3540.62 -4845.27)"/><path class="cls-1" d="M3979.94,5282.57c-14.38,2.52-28.2,4.78-42.87,4.33-1.64,0-1.62,2.45,0,2.54,14.43,0.79,29.74.27,43.67-4A1.51,1.51,0,0,0,3979.94,5282.57Z" transform="translate(-3540.62 -4845.27)"/><path class="cls-1" d="M3978.6,5263.24c-15,1.89-29.45,4-44.67,3.31-1.24-.05-1.22,1.83,0,1.92,14.82,1.13,30.55,1.23,45-2.48C3980.46,5265.61,3980.2,5263,3978.6,5263.24Z" transform="translate(-3540.62 -4845.27)"/><path class="cls-1" d="M3984.84,5246.57c-21.07.63-42.1,2.1-63.19,2.55a1.12,1.12,0,0,0,0,2.24c21,0.4,42.3.26,63.19-2.22C3986.44,5248.95,3986.54,5246.52,3984.84,5246.57Z" transform="translate(-3540.62 -4845.27)"/><path class="cls-1" d="M6434.6,5126.31c-34.88-1.37-72.92-2.46-107.64,2.28-0.85-1.68-3.81-1.43-3.81.85,0,26.83.47,53.67,1.13,80.52a2.37,2.37,0,0,0-2.24-1.57c-20.46-.67-41-0.67-61.42-0.84-16.56-.14-33.69-1.78-50,1.19,0-.23,0-0.46,0-0.68-0.13-3.21-5.15-3.23-5,0a277.85,277.85,0,0,0,4.3,39.7,474.34,474.34,0,0,0-54.31-1c0-.06,0-0.1,0-0.16-1.61-35-2.87-70-6.21-104.88-0.18-1.84-2.76-2-3-.29h0c-25.4-3-52.86-1.31-78.37.31-0.13-44.88-.47-89.91-4.76-134.14a1.4,1.4,0,0,0-1.23-1.3,2.12,2.12,0,0,0-1.94-1.44c-17.75-1.51-35.83-.58-53.64-0.56-12.41,0-27.93-2.21-40.22,1.19a1.48,1.48,0,0,0-2.82.6c0,0.1,0,.2,0,0.3a1.35,1.35,0,0,0-.82,1.24c0.13,1.37.09,1.7,0.63,2.25-3.85,57.79.59,117.36,2.87,175.7a2.4,2.4,0,0,0-1.63-.71c-33.92-1.65-68.26-2.36-102.25-1.72-1-25.12-2.21-50.22-3.79-75.27a2.28,2.28,0,0,0-.8-1.66,2.63,2.63,0,0,0-2.61-1.71c-44.1.55-88.76,0.27-132.63,5.17a1.65,1.65,0,0,0-1.37,2.31c-2.91,12.2-1.26,26.64-.15,39a1.74,1.74,0,0,0,.1.34c-15.47.4-30.95,0.85-46.42,1.18q-0.85-16.9-1.83-33.79H5673c3.66,0.18,3.66-5.53,0-5.69-35.6-1.6-71.32-2.76-106.93-1a2.74,2.74,0,0,0-3.29.15l-0.76,0a1.81,1.81,0,0,0,0,3.61h0c0.4,34.34,1,68.67,2.32,103a1.77,1.77,0,0,0,0,.18c-6.55.16-13.12,0.4-19.7,0.82,0.23-30.57-1.33-61.24-2.13-91.8-0.7-26.71,3.13-57.9-4.28-83.74a2.47,2.47,0,0,0,1.93-3.58c-12.07-23.34-25.7-48.52-43.87-67.73a1,1,0,0,0-.28-0.13c0.93-31.55,2.27-63.76-.51-95.22,0-.08.13-0.12,0.18-0.21a1.84,1.84,0,0,0-.37-2.29s0-.06,0-0.09a1.27,1.27,0,0,0-2.35-.61c-1.56.07-3.15,0.86-4.68,1.18-1.27.26-2.53,0.36-3.82,0.49-1.1.12-2,.54-3,0.71a1.12,1.12,0,0,0-.77,1.71,2.32,2.32,0,0,0-.42,1.1c-2.84,29.53-4,59.63-3.85,89.29a2.23,2.23,0,0,0-.23.26c-14.33,24.4-25.29,50.75-34.31,77.55a2.22,2.22,0,0,0-1.73-.56c-21.82,1.67-43.62,2.94-65.5,3.15-21.7.21-44-2.55-65.55-.17a0.89,0.89,0,0,0-.53,1.56,2.07,2.07,0,0,0-.54,1.64,481.84,481.84,0,0,1,.6,55.74c-23.72.06-47.52,1-71,3.09,0-.08,0-0.17,0-0.25,0.16-3-4.46-3-4.62,0a247.11,247.11,0,0,0-.2,24.94c0.3,6.31.06,12.93,3,18.63a0.62,0.62,0,0,0,.19.18c-28.25,1.52-56.32.47-84.7,2.5-0.65-33.62-1.48-67.24-3.73-100.72,2.88-.85,2.83-5.58-0.45-5.22l-0.28,0a1.71,1.71,0,0,0-2.71.28c-27.26,3-54.5,5-81.94,5.26-10.74.11-35.16-5.77-44.18,1.25-1.17-.51-2.78-0.17-3,1.32a289.57,289.57,0,0,0-1.08,77c-13.8-.57-27.62-0.62-41.38,0-2.94-91.61-1.55-184.83-10.86-276l2.16-.12c3.18-.21,3.25-5.07,0-5-32.6.61-64.67-.73-97.19-3-2-.14-2.45,3.14-0.47,3.48l0.63,0.1c2.46,46.67,4.24,93.38,4.68,140.11,0.44,46.33-2.65,92.78-1.86,139.05-15.66.35-31.48,1.3-46.7,3.13a1.87,1.87,0,0,0,.38-1.05c1.77-48.27,2.63-96.6,3-144.89,0.34-47.9,2.94-97.2-1.69-144.92a1.38,1.38,0,0,0-2.76,0c0,0.18,0,.36,0,0.54a2.1,2.1,0,0,0-1.33-.57c-35.13-2.29-71.18-2.42-106.38-1.43a1.9,1.9,0,0,0-1.71,2.72,1.55,1.55,0,0,0-1.1,1.22c-5,23.69-6.85,56.36-.61,80.33-8.74-.38-17.48-0.62-26.2-0.44q-0.76-19.4-1.53-38.8a2.77,2.77,0,0,0-2.73-2.73c-53,1.39-107-4.92-159.65-1.52,0-.26,0-0.52,0-0.78a2,2,0,0,0-3.94,0c-2.39,50.52-2.44,101.32-1.84,152.09a2.75,2.75,0,0,0-1.16-.16c-43.55,2.75-87,4.52-130.64,4.36a2.75,2.75,0,0,0-2.67,2.67A177.75,177.75,0,0,0,4380,5091v0l-39.63-.09a2.58,2.58,0,0,0-2.55,2.55c1.26,39.54,2.14,79.13,4.59,118.62q-18.64.68-37.28,1.37c-2.37-45.44-4.54-90.89-7-136.32a3,3,0,0,0-3-3,153.07,153.07,0,0,0-39.16,4.52q-0.14-21.61-.28-43.22a2.94,2.94,0,0,0-2.89-2.89c-19.94,0-40.2-.89-60.11.73,0-14.66-.1-29.33-0.16-44a2.88,2.88,0,0,0-2.83-2.84,427.14,427.14,0,0,1-48.63-3c-1.55-.19-2.74,1.44-2.8,2.8-0.77,17.5-1.8,35.17-1.42,52.7a2.64,2.64,0,0,0-2.53-1.73c-9.68-.14-19.37-0.19-29.05,0-4.9.11-13.38-1.36-17.44,2.44-3.38,3.17-2.39,9.42-2.37,13.45A242.12,242.12,0,0,0,4087,5078a352,352,0,0,1-43.52,3,1.91,1.91,0,0,0-1.92,2.45,2.24,2.24,0,0,0-.37,1.32c2.2,60.8,2.78,121.95,7.48,182.62-13.76.19-27.52,0.54-41.26,1.28,0-10.59-.27-21.17-1-31.68,1.92-1.3,1.44-5.06-1.53-5.13-31.73-.75-63.47-1.52-95.21-2a2.72,2.72,0,0,0-2.65,2.65,182,182,0,0,0-.84,31.55c-8.69.45-17.38,0.95-26.06,1.56,2.45-14,.48-28.78-0.07-42.92-0.58-14.64-.42-29.47-2.47-44,1-1.69.3-4.39-2.24-4.31-47.52,1.55-95.06,2.73-142.56,4.85a2.68,2.68,0,0,0-2.6,2.6c-2,18.35-3.32,36.72-3.8,55.17-0.22,8.51-.27,17-0.09,25.53q0.08,6.38.42,12.76a36.38,36.38,0,0,0,3.07,16.88,1.17,1.17,0,0,0-1.56-.06l-0.58.45a2.61,2.61,0,0,0-.64.75c-16.93,1.46-33.52,3.19-50.74,1.14-1.45-16.87-3.26-33.58-5.41-49.87,1.31-1.72.63-4.81-2.1-4.61-40,2.89-80.23,5.07-120.17,9.19a2.53,2.53,0,0,0-2.26,2.09,2.62,2.62,0,0,0-.49,1.25c-6.4,58.93-5.85,118.93-1.07,178,0.23,2.82,4.52,2.9,4.45,0-1.38-59.1-4.56-117.56,1.63-176.52,38.72-1.73,77.4-5.23,116-8.11,1.06,56.9,1.43,115.2,5.82,171.83a2.46,2.46,0,0,0,4.91,0c3.2-38.52,2.25-79.18-1-119,13.28,2.87,26.1,2.95,39.75,1.75,7.82-.68,17.4-3.1,25.23-2.57,14.09,1,14.62,3.92,17.32,17.27,3.48,17.23,1.76,37.45,2.66,55.07,0.94,18.36,1.77,36.74,3.08,55.07,0.22,3,4.79,3.07,4.72,0-0.1-3.79-.24-7.58-0.37-11.37h0q6.43,0.27,12.86.38c0,1.13,0,2.25,0,3.38a1,1,0,0,0,1.92,0c0-1.12,0-2.24.07-3.35a298.65,298.65,0,0,0,40.64-1.92c1.07-.13,1.14-1.77,0-1.72q-8.39.38-16.76,0.73c0-3.89,0-7.77,0-11.66,4.83-.61,9.61-1.45,14.36-2.41a15.86,15.86,0,0,0,3.37,5.45c0.6,0.64,1.48-.29.94-0.94a15.24,15.24,0,0,1-2.54-4.9c2.36-.5,4.73-1,7.07-1.56,1.44-.37.81-2.43-0.6-2.2-2.4.4-4.79,0.73-7.18,1.11a56.65,56.65,0,0,1-.72-14.32c3.35-.49,6.7-1,10-1.57a1,1,0,0,0-.25-1.88c-3.21.4-6.43,0.75-9.64,1.14,0.64-8.84,2.17-17.78,2.47-23.59,2.5-.53,5-1,7.49-1.62,1.48-.35.84-2.55-0.62-2.26-2.25.44-4.5,0.82-6.74,1.26q0.28-6.74.55-13.49c2.85-.55,5.68-1.14,8.49-1.84,1.59-.4.87-2.6-0.66-2.38l-7.7,1.05q0.38-9,.74-18.05l1.23-.17a0.93,0.93,0,0,0-.25-1.82l-0.91.12c0.13-3.27.28-6.54,0.4-9.82,0.08-1.94.16-3.88,0.24-5.82l0.7-.11c1.39-.23,1.09-2.65-0.34-2.49l-0.26,0q0.43-10.6.86-21.2l0.83-.07c2.11-.2,2.18-3.47,0-3.35l-0.7,0q0.35-8.44.68-16.88,6.45-.58,12.9-1.23c0.06,2.16.12,4.31,0.18,6.44a1.22,1.22,0,0,0,2.44,0c0.09-2.24.24-4.49,0.36-6.73q7.5-.77,15-1.67c1.68-.2,1.77-2.79,0-2.7l-1.85.12c0.56-12.62,1.5-25.84.31-38.35a1.5,1.5,0,0,0-3,0c-1.19,12.57-.24,25.84.32,38.5-3.52.21-7,.42-10.57,0.67,0.25-4.32.49-8.65,0.78-13,2.11-.21,4.23-0.39,6.33-0.64a1.11,1.11,0,0,0,0-2.21c-2,0-4.1.07-6.15,0.09,0.28-4.26.52-8.52,0.76-12.79l5.42-.12a1.56,1.56,0,0,0,0-3.12c-1.74-.11-3.48-0.15-5.23-0.23q0.41-8,.52-16l4-.48c1.85-.24,2-3.05,0-3-1.3,0-2.59.14-3.89,0.2,0-.11,0-0.22,0-0.33,0-1.65-2.68-2.13-3-.4,0,0.29-.08.6-0.13,0.89-28.31,1.55-56.53,6.75-84.91,5.93a0.81,0.81,0,0,0,0,1.63c7.69,0.61,15.57.81,23.53,0.74-0.08,4.2-.13,8.41-0.21,12.61-4.69.41-9.37,0.86-14,1.36,0-3.95,0-7.89-.06-11.81a1,1,0,0,0-2.08,0c-0.46,4-.83,8.1-1.15,12.17q-5.23.59-10.43,1.22c-1.36.17-1.42,2.3,0,2.18,3.41-.29,6.82-0.44,10.23-0.68q-0.49,6.54-.82,13.11-6.29.24-12.56,0.41a1,1,0,0,0,0,2l12.45,0q-0.4,9-.6,17.94c-4.31.45-8.63,0.9-12.94,1.34-0.11-17.63-.7-35.28-1.65-52.81-0.1-1.79-2.86-1.81-2.8,0,0.6,17.69,1.1,35.39,1.67,53.09l-3.82.39c-1.09.11-1.11,1.81,0,1.72l3.89-.28q0.27,8.4.6,16.81a51.16,51.16,0,0,1-15.15-2.6c-0.62-9.18-2.29-18.79-2.32-25.82-0.06-14.8-4.53-52.47,6.66-62.5,6.93-6.21,21.36-3.55,30.37-3.82q17.82-.54,35.64-1.13l69.72-2.27c-0.92,15.22.44,30.77,1,46,0.48,13.18-.24,26.9,3,39.71-10.61.77-21.2,1.65-31.73,2.76a2.45,2.45,0,0,0-2.19,2.76,2.22,2.22,0,0,0-3.82,1.47c-0.28,51.41-2.57,102.73-3.36,154.11,0,2.77,4.06,2.7,4.26,0,3.87-51.15,3.89-102.83,3.52-154.11,0-.07,0-0.12,0-0.19a2.14,2.14,0,0,0,1.63.61c25.95-.55,52.12-2.34,78-4.6-8.62,19.66-3.54,44.66-2.92,65.4,0.91,30.47,1.76,60.95,2.88,91.41,0.12,3.33,5.27,3.36,5.2,0-0.54-26.12-1.3-52.24-2-78.35s-5.71-56.3,2.09-81.54a1.68,1.68,0,0,0-2.75-1.65,2.39,2.39,0,0,0-1.87-.68c-5.12.2-10.26,0.47-15.4,0.72,0.09-9.24-.69-23.56,7.72-28.53,5.09-3,23.17.56,29.29,0.7q28,0.65,56.09,1.29c-3.17,30.75-1.65,62.43-1.12,93.27,0.55,32,.72,64.47,4,96.35,0.28,2.65,4.22,2.78,4.23,0,0.07-32.09-2.07-64.24-2.51-96.35-0.26-19.35.35-38.86,0.36-58.32,17.26,0.64,34.48.58,51.75,0.47,6.56,0,20.07-2.86,26.35-.17,15,6.41,11.35,21,11.89,33.64,1.63,38.16,3,76.33,4.48,114.5,0.12,3.23,5.16,3.25,5,0l-3-77.86c-0.46-12.21-.86-24.43-1.26-36.64-0.3-9,2.21-24.56-1.2-32.79-3.28-7.91-6.78-6.36-16-6.34-11.2,0-22.42.08-33.63,0.21,0.31-60.63-3.52-121.44-5.72-182a163.12,163.12,0,0,0,44.33-2.26c2.85-.56,2.4-5.23-0.28-5.39,0-5.37,0-10.75.18-16.12s-1.79-15.85,4.09-18.5c4.17-1.88,13.52-.2,18.15-0.23q10.9-.07,21.79.11a2.55,2.55,0,0,0,2.55-1.69c0,0.1,0,.19,0,0.29,0.07,2.29,3.22,2.17,3.48,0,2.05-17.28,2.64-34.83,3.39-52.23a427,427,0,0,0,43.13,2.76c0,13.92,0,27.85.13,41.77a2.74,2.74,0,0,0,.08.38,1.69,1.69,0,0,0,1.18,2.84c20.38,2.12,41.17,1.32,61.67,1.28q0.14,21.64.28,43.29c0,3.15,4.14,3.61,5.4,1.42a2.41,2.41,0,0,0,1.25.14c14.23-2.32,31.49-8.8,36,7.62,3.33,12.09,1.61,28.6,2.28,41.11,1.46,27.24,2.81,54.48,4.21,81.72q-17,.66-34,1.43a1.72,1.72,0,0,0-1.72,1.88,1.19,1.19,0,0,0-.16.35c-3.9,66.39-1.2,135.67,3.57,202,0.19,2.71,4.25,2.77,4.26,0,0.35-66.29.1-134.42-4.93-200.54,38.38,2.86,78.2,1.55,116.47-2.71-0.64,68.9,2.53,139.05,6.44,207.82,0.17,2.93,4.56,3,4.59,0,0.62-68.83-1-139.74-7.75-208.29,2.71-.9,2.7-5.29-0.58-5.15q-19.93.82-39.88,1.53c0-22-.53-44.06-1.18-66.09q-0.38-13.11-.79-26.21l-0.52-17.47q5-9.34,15.17-6.11c11-2,24.71.13,36,.17,8.64,0,18.56-1.47,27,.07,17.29,3.16,16.37,7.64,17.84,24.74q1.37,15.94,2.63,31.88c7.09,89.65,9,179.48,8,269.38,0,3.08,4.73,3.08,4.78,0a3018.62,3018.62,0,0,0-12.71-328.57,2.67,2.67,0,0,0-2.61-2.61q-27.72-.1-55.45-0.13s0,0,0,0c-0.43-8.42-4.23-31.67.71-38.52,6.71-9.29,31.52-5,41.93-5.17,29-.51,58.1-1.71,87.06-3.95a2.89,2.89,0,0,0,1.22-.37c0.46,36.86,1.23,73.71,1.72,110.42q1.76,133.74,6.64,267.46c0.11,2.92,4.64,2.94,4.55,0-2.77-89.15-5-178.28-6.14-267.46-1.11-88.17,1.52-176.6-1-264.72,24.48,4.87,50.26,4.66,75.15,5.23q20,0.46,40,.42c10,0,31.33-4.37,38.83,2.67s4.55,34.5,5,44.73q0.86,20.8,1.72,41.59,1.81,43.9,3.49,87.8,6.86,173.3,14,346.59c0.13,3.17,5.07,3.19,4.94,0q-9.65-242.05-19.07-484.12c17.2,2,34.6,2.66,52,3.1,0,0,0,0,0,.07a1.37,1.37,0,0,0,2.73,0l11,0.27c-2.43,80.38,1,161.36,1.53,241.78,0.52,81.19.75,162.39,1.59,243.58,0,2.82,4.4,2.83,4.39,0-0.32-81.19-1.26-162.39-1.89-243.58-0.63-80.56,1.66-161.73-1.94-242.2a2.17,2.17,0,0,0,.55-2.29c3.13-21.59,3.77-43.62,3.44-65.4a0.54,0.54,0,0,0-1.07,0c-0.9,21.43-2.53,42.83-3.38,64.26a2,2,0,0,0-.89-0.35c-4.36-.32-8.75-0.59-13.13-0.89,0.73-21,.52-42,0.36-63a0.68,0.68,0,0,0-1.37,0c-0.89,20.9-1.83,41.89-1.84,62.82-4.09-.28-8.17-0.58-12.26-0.83a1,1,0,0,0,.15-0.32,636.43,636.43,0,0,0-.13-64.75,1,1,0,0,0-2,0,636.58,636.58,0,0,0-.13,64.75,1,1,0,0,0,.09.2c-3.14-.19-6.27-0.41-9.42-0.56,1.39-12.85,0-26.11.17-39,0.23-13.65,1.94-27.28,1.87-40.91a1.69,1.69,0,0,0-.1-0.49c34.92,2,70.7,2.93,105.65,1.69a2.07,2.07,0,0,0,1.18-.42c-2.56,46.77.52,94.33,0.25,141.17-0.28,48.31-1.31,96.59-2.49,144.89a1.75,1.75,0,0,0,.57,1.41c-3.45.44-6.87,0.9-10.24,1.42-1.48.23-1.33,2.1-.28,2.74-7,93-3.08,188.08.87,281.14,0.12,2.92,4.68,2.93,4.55,0-4.06-94.1-1-187.74-1.72-281.8,8.62,5.56,35.63.39,43.77,0,14.81-.67,29.83-0.77,44.56-2.49-4.69,94.79-1.71,191.06.9,285.89,0.07,2.69,4.23,2.71,4.2,0-0.46-39.47-.37-79-0.28-118.54a0.63,0.63,0,0,0,.45.15c5.91-.46,11.9-0.85,17.9-1.28q0.29,10.64.58,21.28c-5.58.15-11.22,0.08-17-.32-0.92-.06-0.87,1.29,0,1.4a155.86,155.86,0,0,0,17,1.23q0.3,10.75.59,21.5c-4.26.55-8.55,1-12.92,1.26a0.85,0.85,0,0,0,0,1.69c4.29,0,8.64-.18,13-0.53q0.21,7.67.42,15.33-5.91.43-11.87,0.58a0.81,0.81,0,0,0,0,1.63q6,0,11.93-.22l0.63,22.78a102.3,102.3,0,0,1-13.81-1.4c-1.34-.23-1.94,1.8-0.57,2.07a106.55,106.55,0,0,0,14.45,1.81q0.19,6.88.38,13.77c-2.71.2-5.42,0.4-8.12,0.57a0.67,0.67,0,0,0-.56-1.21,53.52,53.52,0,0,1-5.73,1.61,1.14,1.14,0,0,0,.3,2.22c4.65,0,9.41.11,14.2,0.1l0.13,4.79a1.2,1.2,0,0,0,2.41,0q0-2.4-.09-4.8c10.48-.08,21.07-0.62,31.06-2.68a1.06,1.06,0,0,0-.28-2.08c-10.2-.27-20.54.53-30.84,1.3l-0.25-13.46a92.4,92.4,0,0,0,12.23-.46c0,2.25.08,4.51,0.13,6.76a1.69,1.69,0,0,0,3.38,0c0-2.4,0-4.81,0-7.21a86.47,86.47,0,0,0,11-2.25,1.07,1.07,0,0,0-.57-2.07c-3.49.73-7,1.28-10.44,1.72q0-11.71,0-23.42c5.72-.69,11.42-1.62,17.07-2.86,1.37-.3.77-2.29-0.57-2.07q-8.26,1.37-16.5,2.47c0-5.48,0-10.95,0-16.42a96.69,96.69,0,0,0,9.3-2.65,1,1,0,0,0-.54-2c-2.94.69-5.84,1.28-8.76,1.89q0-9.56,0-19.12a118.63,118.63,0,0,0,18.63-3.79,1.11,1.11,0,0,0-.59-2.13c-6.09,1.23-12.08,2.24-18.06,3q0-10.78-.09-21.56c3.74-.45,7.45-1,11.13-1.63a1,1,0,0,0-.26-1.95c-3.61.08-7.24,0.31-10.87,0.6,0-9-.06-18.09-0.12-27.14,2.21-.42,4.42-0.88,6.6-1.41,1.55-.38.87-2.6-0.65-2.35-2,.32-4,0.61-6,0.91q-0.1-15.84-.25-31.68c1.26-.26,2.52-0.51,3.77-0.82s0.91-2.19-.28-2l-3.51.42c-0.07-8.13-.12-16.26-0.2-24.39,1.39-.34,2.79-0.69,4.16-1.12a1.32,1.32,0,0,0-.7-2.54c-1.17.23-2.32,0.43-3.48,0.64-0.07-7.52-.17-15-0.25-22.55,1.42-.28,2.84-0.56,4.23-0.95a1,1,0,0,0-.27-2l-4,.27q-0.09-8.72-.19-17.44c1-.24,2-0.46,3-0.74,1.18-.34,1-2.41-0.3-2.24l-2.68.34q-0.26-22.22-.56-44.44,3.32-.67,6.61-1.49c1.5-.38.83-2.48-0.62-2.26-2,.3-4,0.55-6,0.83q-0.17-12.74-.35-25.48c1.33-.23,2.68-0.41,4-0.66,1.68-.32,1.31-3.14-0.41-3-1.21.1-2.42,0.25-3.64,0.35q-0.14-9.93-.29-19.86c1.43-.22,2.87-0.38,4.3-0.62s1.1-2.66-.34-2.52l-4,.38q-0.17-11-.34-22c1.05-.17,2.12-0.27,3.17-0.45,1.52-.27,1.19-2.87-0.37-2.71-1,.1-1.89.16-2.85,0.26q-0.19-12-.37-24,3.33-.63,6.63-1.46c1.24-.31,1-2.46-0.31-2.3-2.13.26-4.24,0.48-6.36,0.72q-0.24-14.87-.5-29.73c1.39-.23,2.78-0.45,4.16-0.72s1.12-2.73-.35-2.55c-1.29.16-2.58,0.28-3.86,0.43q-0.21-12.49-.42-25c1.54-.25,3.09-0.49,4.62-0.79s1.25-3.09-.39-2.87c-1.43.19-2.86,0.33-4.29,0.51q-0.19-11-.39-22.1c1-.08,2.09-0.1,3.13-0.19,1.95-.17,2-3.16,0-3.09l-3.18.1q-0.17-10-.35-19.92c1.18-.06,2.36,0,3.54-0.13a1.5,1.5,0,0,0,0-3c-1.19-.09-2.4-0.07-3.6-0.14q-0.16-9.2-.32-18.4l3.92,0c1.91,0,1.85-2.78,0-2.93a231.19,231.19,0,0,0-26.41-.52c-0.07-1.94-.13-3.87-0.2-5.81a0.68,0.68,0,0,0-1.37,0c0,2,0,3.92.07,5.89-8.06.31-16.11,0.9-24.14,1.69-0.41-3.15-.74-6.32-1.18-9.46-0.12-.83-1.52-0.64-1.47.2q0.28,4.75.57,9.48c-1.56.34-1.56,2.85,0.16,2.71h0q1.24,20.56,2.47,41.09c-1.34,0-2.67,0-4-.07a1,1,0,0,0,0,2.08c1.38,0.1,2.76.15,4.14,0.24q0.75,12.67,1.45,25.33c-0.84,0-1.67,0-2.51,0a1,1,0,0,0,0,2c0.87,0.06,1.75.09,2.63,0.14q0.71,12.83,1.34,25.67c-2.35,0-4.68,0-7-.13-1.22-.06-1.2,1.79,0,1.89q3.57,0.27,7.16.47,0.74,15.07,1.33,30.15c-1.29-.05-2.57-0.09-3.87-0.17s-1.36,2,0,2.15,2.64,0.21,4,.31q0.49,12.68.82,25.38c-2.11.06-4.21,0.16-6.33,0.19a0.85,0.85,0,0,0,0,1.69c2.12,0.13,4.26.15,6.4,0.23,0.21,7.81.35,15.62,0.46,23.44-5.86.36-11.74,0.64-17.65,0.8a0.89,0.89,0,0,0,0,1.79q8.81,0.11,17.69-.06,0.14,10.5.13,21-8.15,1-16.27,1.87c-1.36.15-1.43,2.22,0,2.18,5.38-.15,10.82-0.36,16.27-0.66,0,4.43,0,8.86,0,13.3a1.35,1.35,0,0,0,2.7,0c0.09-4.49.14-9,.21-13.5,6-.36,12-0.85,18-1.44q0.27,12.44.56,24.88a224.76,224.76,0,0,1-36.23-.06c-1.28-.11-1.25,1.84,0,2a220.34,220.34,0,0,0,36.3,1.29q0.29,12.71.58,25.43c-5.12.48-10.24,1-15.35,1.46-0.08-3.57-.13-7.14-0.23-10.71a2,2,0,0,0-1.25-3.47c-9.91-.4-20.21-0.44-30.57-0.27,9.23-91.26,3.71-187.23-2.62-278.54a416.58,416.58,0,0,0,87.08,4.19c-1.09,92.94,7.74,186.65,10.4,279.58q4,141,6.52,282.13c0.06,3.26,5.13,3.27,5.07,0q-2.39-140.73-7-281.39c29.07,0.48,57.88,1.52,86.85,4.25a2.18,2.18,0,0,0,1.47-.37v0c-2.67,92,4.13,185.62,10.55,277.35,0.19,2.78,4.52,2.81,4.36,0-5.42-92.38-6.09-185-11.72-277.35a1.61,1.61,0,0,0-2.29-1.38,2.79,2.79,0,0,0-2.36-3.41c-14-1.63-28.11-2.83-42.24-3.5-0.35-25,.3-49.52,1.85-74.43a1.88,1.88,0,0,0,.41-0.16,4.94,4.94,0,0,0,1.11-1c0.38-.39-0.13-1.14-0.61-0.79,1.83-1.32,24.85,2.14,28.69,2.2,10.46,0.16,20.92,0,31.37-.36,21.3-.73,42.52-2.45,63.67-5-3.6,121.65,5.76,245.36,12.35,366.78,0.17,3.1,5,3.13,4.85,0-2.91-61.88-5.72-123.75-7.83-185.65-0.9-26.28-1.31-52.63-1.81-79,36.57,8.22,77.93,3.12,114.63-2.12-2,90.12,5.13,181.44,9,271.46,0.13,3,4.77,3,4.65,0-3.75-91.18-3-183.44-10.56-274.35a1.56,1.56,0,0,0-1.72-1.47,2.65,2.65,0,0,0-2.18-.67c-9.43,1.31-18.82,2.12-28.19,2.64a0.68,0.68,0,0,0,.2-0.31c1.71-6.39.25-13.53,0.1-20.11s0-13.08.24-19.62c32.89,0.11,65.91-.53,98.79-1.39-2.25,51.16,1.89,103.12,3.72,154.26q2.8,78.23,7.06,156.4c0.17,3.19,5.15,3.2,5,0q-4.23-78.17-7.26-156.4c-2-52-.73-104.67-5.34-156.5a1.42,1.42,0,0,0-.29-0.59,2.54,2.54,0,0,0-.32-0.86c-0.28-6.1-2-12.16-2.69-18.23-0.62-5.32-.71-10.69-1.65-16a0.54,0.54,0,0,0-1,0c-1.42,9.8-.58,23.33,2.65,33.08q-11.95-.32-24-0.34a269.11,269.11,0,0,0,.78-55.69,2.46,2.46,0,0,0-.17-0.59c39.85,8.77,86.82,3.4,126.89-.31q0,0.89.07,1.78h0s0,0,0,0c4.64,122.54,10.87,244.9,13.07,367.54,0.05,2.82,4.43,2.83,4.39,0-1.76-122.15-4.92-244.83-15-366.61,11.87-28,25.15-55.2,37.77-82.81a2.23,2.23,0,0,0-.42-2.54c3.09-29.23,5-59,5.17-88.43,0.08,0,.14,0,0.23.05a21.71,21.71,0,0,0,4.32-.19,24.22,24.22,0,0,0,3.19-.57c-1.83,31.72-.67,63.81-1.15,95.57,0,2.4,2.86,2.85,4.1,1.44,12.64,22.59,28,43.74,40.64,66.43a2.18,2.18,0,0,0,1.5,1.15c-6,26.13-.6,57.12.09,83.74,0.8,30.68.84,61.5,2.68,92.14-19.09,1.36-38,3.69-55.78,6.72a1,1,0,0,0-.82.95,1.88,1.88,0,0,0-1.69,1.7c-6.42,65.05-5.2,130.72-.36,195.84,0.2,2.7,4.42,2.72,4.23,0-4.7-65.37-3.41-130.44-.22-195.84a1.68,1.68,0,0,0,0-.19c22.06,0.66,44.28-.76,66.49-2.26-0.56,5.92-1.11,11.85-1.63,17.8-9.72.35-19.45,0.94-29.12,1.7,0-.52,0-1,0-1.55a0.8,0.8,0,0,0-1.59,0c0,0.56,0,1.12,0,1.68-7.38.59-14.72,1.24-22,1.87-0.13-2.73-.23-5.47-0.37-8.2a0.65,0.65,0,0,0-1.3,0c0,2.78,0,5.56,0,8.34l-0.38,0c-1.44.12-1.48,2.34,0,2.28h0.38q0,24.08.61,48.16a0.65,0.65,0,0,0,0,.65q0.2,8,.44,16l-3,.15a1.09,1.09,0,0,0,0,2.18l3-.09q1.05,32.67,2.78,65.31c-4.13-.1-6.65-0.4-6.65-1a0.86,0.86,0,0,0-1.72,0l-0.11,1.41a0.89,0.89,0,0,0,.45.79,25.79,25.79,0,0,0,8.21,2.12q1,18.59,2,37.16c0.09,1.6,2.58,1.62,2.5,0-0.21-4.85-.39-9.7-0.59-14.54,6.69,0.65,13.47,1.22,20.29,1.66,0.16,1.73.29,3.47,0.45,5.2s3,1.83,2.83,0c-0.11-1.68-.19-3.36-0.3-5q8.84,0.51,17.73.62c0,0.44,0,.89,0,1.34a1.25,1.25,0,0,0,2.5,0c0-.44,0-0.87,0-1.31a238.86,238.86,0,0,0,37.68-2.56c1.48-.23,1.11-2.61-0.35-2.59-5.46.09-10.89,0.24-16.31,0.39,0.15-2.34.24-4.7,0.36-7,3.29-.39,6.56-0.86,9.81-1.38,0,1.74-.09,3.47-0.14,5.22-0.06,2,2.88,1.93,3.06,0s0.29-3.87.46-5.81c1.06-.19,2.13-0.35,3.18-0.56,1.51-.3,1.19-2.86-0.37-2.72l-2.57.21q1.83-22.64,2.24-45.61l0.63-.1c1.34-.24,1-2.42-0.32-2.36l-0.25,0c0.38-25.1-.44-50.31-2.32-75.26,1.9-.11,3.8-0.18,5.7-0.3a1.16,1.16,0,0,0,0-2.31c-2,0-3.93.06-5.9,0.07q-0.82-10.54-1.89-21c2.6-.2,5.19-0.4,7.77-0.65a1.06,1.06,0,0,0,0-2.11c-2.69-.2-5.39-0.33-8.1-0.45-0.27-2.57-.5-5.15-0.79-7.7,0-.43-0.7-0.45-0.68,0,0.11,2.55.18,5.09,0.27,7.64q-5-.19-10.07-0.23c-0.11-4.48-.22-9-0.31-13.44a1.14,1.14,0,0,0-2.28,0c-0.09,4.47-.19,9-0.29,13.44-4.33,0-8.67.05-13,.19,0.31-5.94.68-11.88,1-17.82,17.67-1.19,35.34-2.4,52.93-2.62,0.06,0,.1,0,0.16,0-7.74,66.13-4.24,134.84,1.6,201,0.27,3.07,5.09,3.12,4.85,0-5.22-67.46-3.51-134.23-4.08-201.76a1,1,0,0,0-.52-0.9,2.17,2.17,0,0,0-2-2.56c-12.48-1.06-25.53-1.35-38.75-1.14,0,0,0-.07,0-0.12,0.16-34.29-.33-68.59-1-102.87,33.56,0.88,67.1,1.07,100.64,2.57,2.11,101.79,7.15,203.56,9.72,305.35,0.08,3.2,5,3.21,5,0-2-89.39-3.43-179.09-7.85-268.46a619.31,619.31,0,0,0,69.35.84c3.51-.17,3.56-5.56,0-5.5-6.61.12-13.21,0.31-19.82,0.48a1.71,1.71,0,0,0,.05-0.27c0-12.51,2-25.69,1-38.11,42.8,0.84,85.75-1.8,128.55-2.42-0.39,105.84,5.28,212.23,8.94,318,0.12,3.46,5.48,3.48,5.4,0-1.91-80.58-2.69-161.59-5.84-242.3,10.93,6,36.95,2.35,48.42,2.69,17.88,0.52,35.81,1.14,53.69,1a2.32,2.32,0,0,0,1.76-.74q0.46,12.23.75,24.38,2.34,103.68,4.84,207.35c0.08,3.34,5.27,3.36,5.2,0q-2.2-103.68-4.59-207.35c-1.53-66.92,2-136.41-5.41-203,8.63,1.12,43.17-.91,46.6-0.9,15.44,0.07,31.1.84,46.48-.42a2.41,2.41,0,0,0,.23-0.06c-4.21,68.54,1.49,138.85,3.16,207.47q2.54,104.46,5.94,208.89c0.11,3.26,5.17,3.27,5.07,0q-3.19-104.43-5.8-208.89c-0.57-23.76-.61-47.72-0.67-71.73,25.5,1.62,53,3.27,78.36.31h0c0.32,33.87,2.49,67.7,4.36,101.51a2.33,2.33,0,0,0,.11.41c-6.16.33-12.31,0.75-18.45,1.36a1.93,1.93,0,0,0-.83.29,1,1,0,0,0-1.2,1c-0.55,57.39,5,115.31,8.62,172.57,0.16,2.59,4.19,2.63,4.07,0-2.69-56.56-3.6-114-10.19-170.25,33.38-.52,66.4.08,99.66,3.22a2.45,2.45,0,0,0,1.32-.23c-3.4,28.09,2.27,55.92,5.35,83.88,3.06,27.74-2,57.36,6.55,84.13a2.13,2.13,0,0,0,4.11-1.13c-6.76-28.32-2.82-58.29-6.21-87.17-3.28-28-6.67-55.2-6.47-83.41,0-1.53-2.37-2-2.79-.53a2.8,2.8,0,0,0-1.86-1c-2-.22-3.94-0.37-5.91-0.57-0.57-4.16-1.95-8.11-2.31-12.35a62.79,62.79,0,0,1,.46-13.34c0.14-1.07-1.65-1.3-1.88-.25-1.77,7.77-2.54,18,.77,25.66-3.38-.33-6.75-0.71-10.13-1-1.1-12.31-2.15-24.63-2.73-37,16.18,3.23,33.43,1.94,49.87,2.1,20.47,0.21,41,.6,61.42.32a2.32,2.32,0,0,0,2.29-1.65c1.75,70.23,5.08,140.51,7.32,210.63,0.1,3.11,4.94,3.13,4.85,0-2.8-97-3.5-194.35-9.22-291.2,34.71,3.87,72.58,1.8,107.32-.43A2.25,2.25,0,0,0,6434.6,5126.31ZM3821.34,5394.65c-4.53.72-9.07,1.48-13.6,2.11,0-4.94,0-9.87,0-14.81q6.82-.75,13.61-1.73C3821,5385.28,3820.43,5390.17,3821.34,5394.65Zm0.26-18.91c0,0.71-.07,1.41-0.11,2.12-4.58.54-9.16,1.11-13.74,1.62q0.06-11.06.19-22.12c4.76-.76,9.5-1.64,14.23-2.59C3822,5361.76,3821.76,5368.75,3821.6,5375.74Zm0.66-23.68c-4.76.9-9.51,1.83-14.27,2.66q0.09-7.07.21-14.15,7.27-.73,14.44-2C3822.5,5343.09,3822.38,5347.57,3822.26,5352.06Zm0.81-29.29c-0.12,4.17-.22,8.35-0.35,12.52-4.84.65-9.66,1.28-14.48,1.84q0.15-8.88.34-17.77c4.89-.65,9.77-1.36,14.64-2.07Q3823.14,5320,3823.07,5322.77Zm0.21-7.41c-4.89.6-9.78,1.21-14.66,1.87q0.15-7.71.31-15.42,7.41-.84,14.78-2Q3823.49,5307.61,3823.27,5315.37Zm0.51-18.21L3809,5298.9q0.23-10.92.45-21.84c5-.36,10-0.78,15-1.21Q3824.08,5286.5,3823.78,5297.16Zm0.71-24.72c-5,.33-10,0.66-15,1.07q0.17-8.28.31-16.57c5.07-.4,10.13-0.87,15.2-1.31Q3824.75,5264,3824.49,5272.44Zm0.65-20.5c-5.09.44-10.17,0.87-15.26,1.35q0.12-6.86.22-13.72c5.17-.16,10.33-0.39,15.48-0.67C3825.42,5243.25,3825.29,5247.6,3825.14,5251.95Zm0.59-17c-5.19.17-10.37,0.34-15.56,0.57,0.06-4.3.09-8.61,0.13-12.92,5.32-.15,10.66-0.23,16-0.36C3826.09,5226.49,3825.89,5230.72,3825.73,5235Zm3.5,16.63q0.25-6.45.47-12.9,6.06-.38,12.09-0.91c0,4.29,0,8.57.13,12.81Q3835.58,5251.06,3829.23,5251.58Zm12.59-16.94c-4,.06-8,0.05-12,0.17,0.14-4.21.25-8.43,0.37-12.64l12-.27C3842,5226.13,3841.87,5230.39,3841.83,5234.64Zm-55.36-27.26c19.26-.37,38.88-2.36,57.58-4.65-0.73,5.06-1.25,10.2-1.59,15.39q-6.06-.19-12.13-0.2c0.09-3.3.2-6.6,0.27-9.91,0.05-2.4-3.59-2.37-3.71,0-0.16,3.31-.28,6.63-0.43,9.94-5.37,0-10.75.16-16.12,0.38,0-2.4.06-4.79,0.07-7.19,0-1.81-2.59-1.74-2.76,0-0.24,2.43-.4,4.88-0.62,7.32-6.87.33-13.74,0.74-20.58,1.31C3786.44,5215.65,3786.47,5211.51,3786.47,5207.38Zm0,16c6.74-.3,13.49-0.46,20.23-0.66-0.37,4.33-.79,8.65-1.1,13q-9.58.44-19.16,0.92Q3786.42,5230,3786.43,5223.39Zm0,16.64q9.46-.05,18.94-0.29c-0.31,4.68-.56,9.38-0.81,14.07q-9.09.89-18.17,1.84C3786.38,5250.44,3786.37,5245.23,3786.39,5240Zm0,18.69q9-.64,18-1.32c-0.27,5.52-.46,11.05-0.64,16.59l-17.49,1.48C3786.24,5269.88,3786.31,5264.29,3786.35,5258.71Zm-0.18,19.92q8.7-.55,17.4-1.15-0.32,11-.44,22.09c-5.72.66-11.44,1.33-17.17,1.92Q3786.08,5290.06,3786.16,5278.62Zm-0.24,25.33q8.59-.65,17.16-1.52-0.07,7.78-.06,15.56-8.66,1.2-17.31,2.45Q3785.83,5312.2,3785.93,5303.95Zm-0.24,18.35q8.68-1.08,17.36-2.21c0,5.86,0,11.72.14,17.58-5.9.63-11.81,1.18-17.77,1.51C3785.51,5333.55,3785.61,5327.93,3785.69,5322.3Zm-0.31,19.57c6-.1,11.93-0.43,17.89-0.9q0.13,7.22.33,14.43c-6.15,1-12.3,2-18.48,2.88C3785.21,5352.81,3785.28,5347.34,3785.37,5341.87Zm-0.3,18.43c6.21-.62,12.4-1.42,18.57-2.33q0.3,10.94.74,21.84c-6.58.71-13.16,1.41-19.76,2C3784.78,5374.65,3784.94,5367.48,3785.07,5360.31Zm-0.5,23.62c6.64-.41,13.27-1,19.89-1.65q0.3,7.43.65,14.83c-6.94.93-13.89,1.74-20.89,2.33Q3784.41,5391.68,3784.58,5383.92Zm-0.4,17.67c7-.21,14.07-0.73,21.07-1.53,0.18,3.83.34,7.68,0.54,11.5-7.28.29-14.56,0.53-21.85,0.62C3784,5408.66,3784.1,5405.12,3784.18,5401.59ZM3769,5412.15s0,0-.06,0c-0.32-9.15-.73-18.31-1.16-27.46,4.66-.15,9.31-0.38,14-0.65q0,7.76.06,15.52c-3.23.24-6.46,0.52-9.72,0.66a0.75,0.75,0,0,0,0,1.5c3.23,0,6.48,0,9.73-.09,0,3.52,0,7,0,10.55C3777.6,5412.24,3773.32,5412.24,3769,5412.15Zm12.8-91.14-11.5,1.66a0.78,0.78,0,0,0,.21,1.53l11.29-1.41c0,5.51,0,11,0,16.54-4.22.18-8.46,0.29-12.75,0.25a1.11,1.11,0,0,0,0,2.21c4.22,0.1,8.48.13,12.74,0.1,0,5.6,0,11.2,0,16.8-4.22.54-8.44,1.07-12.68,1.5-0.92.09-.95,1.53,0,1.46,4.23-.29,8.45-0.67,12.67-1.06,0,7.16,0,14.31,0,21.47-4.67.4-9.34,0.78-14,1.09q-0.74-15.62-1.52-31.24-0.89-18.36-1.81-36.71c-0.11-2.12.2-6,.25-9.83q8.62-.5,17.26-1.11Q3781.87,5312.64,3781.83,5321Zm-12.92-96.71c4.68-.3,9.35-0.51,14-0.73q-0.12,6.62-.22,13.25c-4.72.23-9.45,0.46-14.17,0.66Q3768.82,5230.87,3768.91,5224.3Zm-0.48,15.75q7.1,0,14.23,0c-0.08,5.34-.19,10.68-0.26,16l-15,1.56Q3768,5248.84,3768.44,5240Zm-1.17,20,15.09-1.07c-0.07,5.6-.1,11.21-0.16,16.81h0c-5.18.43-10.63,1.12-16.15,1.68Q3766.65,5268.81,3767.27,5260.06Zm-16.26,1.17c4.29-.32,8.59-0.62,12.88-0.93q-0.19,8.72-.31,17.39a122.93,122.93,0,0,1-12.7.63Q3751,5269.78,3751,5261.23Zm-17.15,16.41a50.09,50.09,0,0,0,15.11,2.84c0.12,3.1.19,6.19,0.33,9.29a0.68,0.68,0,0,0,1.37,0c0.1-3.07.11-6.15,0.18-9.22,4.18,0.09,8.41-.15,12.7-0.44,0,2.2-.07,4.4-0.1,6.59a0.94,0.94,0,0,0,1.89,0c0.16-2.24.33-4.49,0.5-6.74l5.5-.39,10.85-.69q-0.12,11.52-.22,23c-5.75.57-11.51,1.09-17.3,1.5,0-3.67-.42-7.12-1.74-8.88-4.24-5.62-15.47-2.59-21.3-2.26-3,.17-6,0.39-9,0.62C3733.94,5288.53,3734.13,5283.21,3733.85,5277.65ZM4905.6,5169a144.52,144.52,0,0,0,15.47.63q0.19,7.64.38,15.28a87,87,0,0,1-9.75-1c-1.39-.22-2,1.88-0.59,2.13,3.39,0.6,6.88,1.11,10.4,1.47q0.3,12.07.6,24.14a93.27,93.27,0,0,1-15.12-1.22,0.94,0.94,0,0,0-.89.35Q4906,5189.86,4905.6,5169Zm0.52,43.06a0.77,0.77,0,0,0,.36.26,98.7,98.7,0,0,0,15.71,2.14q0.32,12.32.65,24.65c-5.47.42-11,.72-16.53,0.67C4906.3,5230.51,4906.19,5221.28,4906.12,5212Zm16.79,29.56q0.43,16.08.85,32.15c-5.77.6-11.56,1.1-17.42,1.33q0-16.9,0-33.8C4911.81,5241.58,4917.37,5241.72,4922.91,5241.6Zm-16.17,63.92a0.77,0.77,0,0,0-.45.25q0-14.55,0-29.09c5.79,0.12,11.65,0,17.49-.37q0.36,13.45.73,26.9C4918.6,5304,4912.64,5304.79,4906.75,5305.51Zm35.16,87.44a112.33,112.33,0,0,1-12.22.56l-0.42-23c4.07-.2,8.13-0.54,12.18-0.95Q4941.68,5381.24,4941.91,5393Zm-0.82-41.75q0.15,7.94.31,15.88c-4.05.49-8.1,1-12.17,1.31l-0.28-15.38C4933,5352.6,4937.08,5352,4941.09,5351.2Zm-0.4-22.38q0.17,9.79.35,19.58c-4,.78-8.07,1.47-12.13,2.06q-0.19-10.51-.39-21C4932.58,5329.43,4936.64,5329.19,4940.68,5328.83Zm0-2.83c-4.05.44-8.1,0.8-12.18,1q-0.2-10.72-.4-21.44,6.13-.46,12.24-1.08Q4940.47,5315.23,4940.64,5326Zm-0.38-24.64q-6.12.6-12.25,1.39-0.25-13.33-.5-26.66c4.13-.32,8.25-0.77,12.34-1.38C4940,5283.59,4940.13,5292.47,4940.26,5301.36Zm-0.45-29.6c-4.12.59-8.23,1.14-12.35,1.61q-0.3-16-.62-31.91a126.55,126.55,0,0,0,12.6-1.23Q4939.63,5256,4939.81,5271.76Zm-0.4-34.3c-4.22.49-8.42,1-12.62,1.34q-0.24-12.13-.47-24.26a78.74,78.74,0,0,0,12.81-1Q4939.26,5225.5,4939.41,5237.46Zm-0.32-27.15a124.25,124.25,0,0,1-12.84,1.24q-0.24-11.84-.5-23.68a80.85,80.85,0,0,0,13.14-.21Q4939,5199,4939.1,5210.3Zm-0.22-25.75c-4.42.28-8.78,0.49-13.17,0.46q-0.16-7.78-.33-15.56a105.14,105.14,0,0,0,13.36-1.53Q4938.8,5176.24,4938.87,5184.55Zm-0.17-19.75c-4.48.55-8.94,1.07-13.4,1.45q-0.17-8-.34-16.09,6.81-.35,13.6-0.93Q4938.63,5157,4938.71,5164.81Zm-0.15-18.19q-6.82.38-13.63,1-0.28-12.65-.59-25.29,7.06-.54,14.06-1.69Q4938.47,5133.62,4938.55,5146.62Zm-0.18-29.14c-4.72.6-9.42,1.14-14.12,1.55q-0.29-12.49-.58-25c4.88-.54,9.73-1.2,14.55-1.94Q4938.28,5104.79,4938.37,5117.47Zm-0.17-29c-4.87.45-9.75,0.87-14.62,1.4q-0.24-9.7-.48-19.39c5-.42,10-1,15-1.65Q4938.14,5078.62,4938.19,5088.44Zm-0.11-22.65c-5,.48-10.06,1-15.08,1.43q-0.27-10.84-.57-21.69c5.22-.3,10.4-0.85,15.56-1.53Q4938,5054.89,4938.09,5065.79Zm-0.1-24.93c-5.22.5-10.44,1-15.64,1.41q-0.31-11.76-.62-23.51a147.27,147.27,0,0,0,16.16-1.59Q4937.93,5029,4938,5040.85Zm-0.11-26.93c-5.42.59-10.83,1.12-16.23,1.51-0.27-9.85-.58-19.69-0.88-29.54,5.7-.28,11.37-0.8,17-1.6Q4937.83,4999.11,4937.87,5013.92Zm-0.23-86.38c-6.24.21-12.47,0.44-18.69,0.57q-0.34-10.18-.7-20.36,9.71,0.23,19.36-.12Q4937.63,4917.59,4937.65,4927.54Zm-18.9,140c-5.72.49-11.43,1-17.16,1.37q0.06-11.52,0-23.05c5.56,0.14,11.15,0,16.73-.18Q4918.53,5056.62,4918.75,5067.56Zm18.81-181.67q0,9.14,0,18.29-9.7-.36-19.48-0.12c-0.21-6-.41-12-0.62-18.06C4924.18,4885.89,4930.87,4885.9,4937.56,4885.89Zm-45.48,1.09c7.95-.56,15.89-0.81,23.83-0.94,0.06,6,.14,12.05.21,18.08-6.73.18-13.46,0.42-20.13,0.51a1.29,1.29,0,0,0,0,2.57c6.68,0.09,13.42.33,20.17,0.51q0.12,10.23.23,20.46c-6.61.13-13.22,0.19-19.85,0.11Q4894.74,4907.54,4892.09,4887Zm4.7,43.73q9.8,0.55,19.65.65,0.15,11.87.32,23.73c-6,.4-12.06.68-18.14,0.7C4898.08,4947.41,4897.49,4939,4896.78,4930.71Zm2,27.44c6,0.23,12,.2,18,0q0.18,12.46.4,24.92c-5.69.35-11.38,0.6-17.1,0.61C4899.73,4975.15,4899.31,4966.64,4898.78,4958.15Zm1.43,27.86c5.68,0.22,11.36.19,17,0,0.16,9.89.31,19.77,0.48,29.66-5.49.32-11,.52-16.55,0.43Q4900.84,5001,4900.21,4986Zm1,32.54c5.5,0.33,11,.46,16.55.35q0.22,11.81.46,23.63c-5.56.39-11.11,0.78-16.69,1C4901.51,5035.18,4901.42,5026.86,4901.25,5018.54Zm0.11,73.85q0.15-10.37.22-20.77c5.75-.15,11.5-0.46,17.24-0.87q0.2,9.8.42,19.59Q4910.29,5091.33,4901.36,5092.38Zm18.47-137.5q-0.37-11.75-.76-23.49c6.21,0,12.41-.2,18.59-0.58q0,11.15,0,22.31C4931.74,4953.82,4925.78,4954.44,4919.83,4954.89Zm0.09,3.15c6-.29,11.89-0.82,17.79-1.64q0,12.43.07,24.87c-5.71.62-11.41,1.18-17.11,1.58Q4920.3,4970.45,4919.93,4958Zm0.67,192.35q0.19,8.08.4,16.16c-5.1.35-10.22,0.58-15.44,0.47-0.09-5.31-.22-10.62-0.34-15.93C4910.34,5150.84,4915.47,5150.63,4920.6,5150.39Zm648.74,245.69c0.21-4.22.43-8.44,0.58-12.68q4.75-.49,9.46-1.18c-0.1,4.35-.23,8.7-0.35,13.05C5575.8,5395.55,5572.56,5395.84,5569.34,5396.08Zm10.09-16.11c-1.82.07-5.09,0.25-9.43,0.5,0.14-4.35.28-8.69,0.36-13.05,3-.35,6-0.68,8.93-1.07a0.9,0.9,0,0,0,.43-0.27Q5579.59,5373,5579.43,5380Zm0.76-69c-3.28.16-6.56,0.38-9.84,0.56-0.07-4.54-.14-9.09-0.23-13.63,3.34-.4,6.68-0.79,10-1.27Q5580.18,5303.81,5580.19,5311Zm0,2q0,7.19,0,14.37c-3.22.38-6.43,0.72-9.63,1q-0.06-7.17-.15-14.34C5573.66,5313.66,5576.93,5313.34,5580.2,5312.94Zm-0.11-18.43c-3.35.25-6.68,0.45-10,.69q-0.11-5-.23-10,5.06-.68,10.12-1.42Q5580,5289.15,5580.09,5294.51Zm-0.32,69.57a1.17,1.17,0,0,0-.82-0.35c-2.8,0-5.65.12-8.49,0.2,0.07-4.1.08-8.22,0.1-12.33,3.15-.43,6.28-1,9.42-1.46C5579.91,5354.78,5579.85,5359.42,5579.77,5364.08Zm-9.18-16.16q0-8.39,0-16.79c3.21-.4,6.4-0.9,9.6-1.43q0,8.78-.15,17.57C5576.87,5347.47,5573.73,5347.64,5570.59,5347.92Zm9.33-65.92q-5.08.45-10.15,0.94-0.13-5.29-.25-10.58c3.4-.15,6.79-0.35,10.19-0.53C5579.78,5275.21,5579.86,5278.61,5579.92,5282Zm-0.89-33.72q0.37,10.46.62,20.9c-3.4,0-6.8.06-10.2,0.13q-0.26-10.22-.51-20.39Q5574,5248.64,5579,5248.27ZM5551.67,5273c4.55-.14,9.1-0.33,13.64-0.51q-0.13,5.44-.24,10.89-6.92.72-13.83,1.52Q5551.44,5279,5551.67,5273Zm12.72,79.36c0,3.89,0,7.79.12,11.67q-7.7.28-15.47,0.78,0.13-5.39.26-10.77Q5556.86,5353.31,5564.39,5352.39Zm-15-2.21q0.21-8.63.43-17.25,7.27-.34,14.52-1.08,0,8.33,0,16.65Q5556.87,5349.25,5549.39,5350.18Zm15.23,17.93c0.09,4.22.22,8.44,0.37,12.65-4.85.28-10.46,0.61-16.38,0.93q0.16-6.06.31-12.12Q5556.81,5368.95,5564.62,5368.11Zm0.46,15.77c0.16,4.17.39,8.33,0.6,12.49q-8.77.64-17.5,1.11,0.18-6.3.36-12.6C5554.05,5384.65,5559.57,5384.34,5565.08,5383.88Zm-13.94-96.32q6.94-.81,13.88-1.71-0.11,4.86-.21,9.71c-4.65.32-9.32,0.68-14,1Q5551,5292,5551.13,5287.56Zm-0.4,12.23c4.68-.33,9.35-0.75,14-1.24-0.09,4.44-.14,8.88-0.21,13.32-4.72.28-9.45,0.51-14.18,0.81Q5550.53,5306.23,5550.73,5299.79Zm13.75,14.82c-0.06,4.78-.1,9.55-0.13,14.33-4.83.4-9.65,0.75-14.46,1q0.18-7.08.37-14.16Q5557.38,5315.27,5564.49,5314.61Zm-14.36-64.93q-0.86,10.09-1.64,20.22-13.38.48-26.75,1.12c-0.11-6.89-.23-13.78-0.29-20.68C5531,5250.15,5540.57,5250,5550.13,5249.68Zm-52.25,1.32c7.22-.28,14.48-0.47,21.76-0.62q-0.32,10.38-.47,20.77-10.17.5-20.32,1.06Q5498.38,5261.6,5497.88,5251Zm1,23q10.1-.11,20.22-0.26c-0.06,5.07-.13,10.13-0.14,15.2l-18.93,2.54a0.52,0.52,0,0,0-.38.25C5499.46,5285.85,5499.18,5279.94,5498.93,5274Zm0.8,18.49a0.54,0.54,0,0,0,.53.33L5519,5291c0,2.38,0,4.76,0,7.13q-9.53.39-19.1,0.66C5499.88,5296.71,5499.8,5294.62,5499.72,5292.53Zm0.3,7.79c6.33,0.33,12.69.48,19.06,0.52q0.05,6.9.17,13.8c-6.21.37-12.42,0.73-18.64,1Q5500.32,5308,5500,5300.31Zm0.67,17.68q9.3-.25,18.61-0.59c0.08,4.27.15,8.55,0.28,12.82-6.13-.2-12.28-0.55-18.46-1.08C5501,5325.42,5500.83,5321.71,5500.69,5318Zm0.5,13c6.15,0.78,12.31,1.34,18.48,1.73q0.33,10.66.84,21.3c-4.59.63-9.17,1.25-13.74,1.83a0.43,0.43,0,0,0-.08-0.1,3.75,3.75,0,0,0-4.57.68Q5501.66,5343.72,5501.19,5331Zm1,27.38c6.12-.63,12.29-1.18,18.46-1.72q0.26,5.33.58,10.66c-5.54.65-11.06,1.37-16.46,2.21-1,.15-0.71,1.68.23,1.69,5.41,0.06,10.92,0,16.44-.16,0.24,4,.52,7.95.8,11.92-7.31.29-14,.48-19.1,0.46Q5502.65,5370.91,5502.19,5358.38Zm1.89,48.79q-0.42-10.1-.82-20.2c6.2,0.32,13.08-.33,19.18-0.87,0.29,4.1.59,8.2,0.92,12.29-5.09.1-10.18,0.18-15.33,0.16a0.76,0.76,0,0,0,0,1.53c5.13,0.61,10.34,1,15.59,1.34q0.27,3.23.56,6.45C5517.51,5407.79,5510.81,5407.59,5504.08,5407.17Zm19.25-74.23c7.21,0.36,14.43.34,21.64,0.14q-0.3,8.87-.46,17.72-10.14,1.31-20.25,2.72C5524,5346.66,5523.6,5339.8,5523.34,5332.94Zm1.53,34c-0.18-3.52-.31-7-0.47-10.57q10-.86,20.06-1.8c-0.06,3.55-.16,7.09-0.18,10.64C5537.79,5365.65,5531.3,5366.19,5524.86,5366.9ZM5525,5371c6.4-.21,12.83-0.6,19.26-1.05,0,4,0,8,.08,12-6.2.33-12.58,0.65-18.66,0.91C5525.5,5378.88,5525.25,5374.92,5525,5371Zm0.86,14.84c1.82-.15,3.56-0.27,5.11-0.31,4.45-.13,8.92-0.26,13.39-0.43,0.06,4.21.18,8.4,0.3,12.6-6,.29-12,0.54-18,0.69C5526.4,5394.17,5526.14,5390,5525.9,5385.81Zm1.33,22.06c-0.14-2.08-.25-4.17-0.38-6.25,6,0.28,12,.28,18,0.14,0.07,2,.11,4,0.19,5.93C5539.1,5407.81,5533.18,5407.9,5527.24,5407.87Zm17.85-77.77c-7.28.26-14.56,0.39-21.86,0.22-0.16-4.35-.24-8.71-0.39-13.07q11.4-.46,22.78-1.19C5545.4,5320.74,5545.25,5325.42,5545.08,5330.1Zm0.7-17.14q-11.52.73-23,1.46-0.21-6.8-.4-13.61c8,0,16.1-.32,24.14-0.8C5546.25,5304.33,5546,5308.65,5545.79,5313Zm0.89-16.23c-8.13.47-16.26,0.91-24.41,1.26-0.06-2.44-.16-4.87-0.22-7.3q12.59-1.27,25.17-2.69Q5546.94,5292.37,5546.68,5296.74Zm0.73-11.36q-12.72,1.52-25.41,3.2c-0.11-4.94-.14-9.9-0.22-14.85q13.24-.22,26.49-0.61Q5547.81,5279.25,5547.41,5285.38Zm18.84,121.75c-6.13.17-12.26,0.36-18.38,0.5q0.09-3,.18-6c6-.21,11.93-0.62,17.84-1.24C5566,5402.64,5566.1,5404.89,5566.25,5407.12ZM5565.86,5249q-0.23,10.16-.48,20.37c-4.53.11-9.06,0.22-13.6,0.37q0.41-10.08.92-20.17C5557.1,5249.47,5561.48,5249.26,5565.86,5249Z" transform="translate(-3540.62 -4845.27)"/><path class="cls-1" d="M4068.09,5109.26a1.38,1.38,0,0,0-2.76,0c-1.24,47.49,1.66,96.65,6,144a0.85,0.85,0,0,0,1.69,0C4073.3,5205.25,4069.53,5157.19,4068.09,5109.26Z" transform="translate(-3540.62 -4845.27)"/><path class="cls-1" d="M4086.8,5106.33a1.24,1.24,0,0,0-2.47,0c-2.52,48.86-.51,99.13,1.75,148a0.89,0.89,0,0,0,1.79,0C4089.19,5205.43,4090.24,5155.14,4086.8,5106.33Z" transform="translate(-3540.62 -4845.27)"/><path class="cls-1" d="M4106.12,5058.4c-0.09-.88-1.43-0.91-1.4,0,4.64,120.27,12,240.71,18.57,360.9a1.17,1.17,0,0,0,2.34,0C4123.13,5299.25,4117.74,5177.94,4106.12,5058.4Z" transform="translate(-3540.62 -4845.27)"/><path class="cls-1" d="M4129.32,5064.62c-0.1-1.38-2.23-1.41-2.18,0,4,117.75,10.77,235.44,15.46,353.17,0.07,1.86,3,1.87,2.89,0C4141.24,5300.08,4137.45,5182.13,4129.32,5064.62Z" transform="translate(-3540.62 -4845.27)"/><path class="cls-1" d="M4154,5061.59a0.81,0.81,0,0,0-1.63,0c3.61,117.2,8.28,234.3,11.15,351.53a1.37,1.37,0,0,0,2.73,0C4167.24,5296.32,4164.06,5178,4154,5061.59Z" transform="translate(-3540.62 -4845.27)"/><path class="cls-1" d="M4170.78,5006.11a0.81,0.81,0,0,0-1.63,0c1.1,139.69,11.38,279.73,17.4,419.28,0.09,2.19,3.51,2.2,3.41,0C4183.81,5285.81,4181.84,5145.39,4170.78,5006.11Z" transform="translate(-3540.62 -4845.27)"/><path class="cls-1" d="M4190.3,5052.32a1,1,0,0,0-1.92,0c1.11,121.72,8.76,243.87,14.39,365.46,0.09,1.87,3,1.89,2.93,0C4201.42,5296.12,4199.08,5173.74,4190.3,5052.32Z" transform="translate(-3540.62 -4845.27)"/><path class="cls-1" d="M4209.4,5056.87a0.7,0.7,0,0,0-1.4,0c2.55,121.85,11,243.63,13.8,365.53,0,2.07,3.24,2.08,3.22,0C4223.71,5301,4222.26,5177.69,4209.4,5056.87Z" transform="translate(-3540.62 -4845.27)"/><path class="cls-1" d="M4243.1,5236.5c-3.05-57.82-6.35-115.69-11.29-173.39-0.14-1.65-2.7-1.69-2.6,0,3.46,57.8,7.4,115.55,10.22,173.39s2.75,116,7.43,173.58a1.29,1.29,0,0,0,2.57,0C4250.76,5352.41,4246.14,5294.08,4243.1,5236.5Z" transform="translate(-3540.62 -4845.27)"/><path class="cls-1" d="M4256.62,5100.17a1,1,0,0,0-2.08,0c0.54,34.4,1.37,69.16,5.33,103.36,0.23,1.94,3.23,2,3.12,0C4261.09,5169.05,4258,5134.69,4256.62,5100.17Z" transform="translate(-3540.62 -4845.27)"/><path class="cls-1" d="M4279.94,5106.29c-0.16-2-3.14-2-3.09,0,0.71,27,.8,54.89,4.19,81.72,0.27,2.12,3.37,2.26,3.41,0C4285,5161,4282.11,5133.25,4279.94,5106.29Z" transform="translate(-3540.62 -4845.27)"/><path class="cls-1" d="M4771.48,4868.91a0.93,0.93,0,0,0-1.85,0c-2.92,180.23-.33,361,4.07,541.19,0,1.9,3,1.91,3,0C4772.1,5229.73,4775.6,5049.26,4771.48,4868.91Z" transform="translate(-3540.62 -4845.27)"/><path class="cls-1" d="M4789.32,4878.16a1,1,0,0,0-2,0c-10.1,179-8.65,360.83,5.55,539.58,0.14,1.73,2.83,1.77,2.73,0C4786,5237.55,4783.49,5058.54,4789.32,4878.16Z" transform="translate(-3540.62 -4845.27)"/><path class="cls-1" d="M4805.66,4875.07a0.94,0.94,0,0,0-1.89,0c-2.48,79.09-5.1,159.91-1.43,239a1.4,1.4,0,0,0,2.8,0C4809.45,5035,4807.49,4954.17,4805.66,4875.07Z" transform="translate(-3540.62 -4845.27)"/><path class="cls-1" d="M5026.84,5078.52a0.54,0.54,0,0,0-1.07,0c-1.41,15.72-1.39,32.59,2.4,48,0.29,1.2,2.37,1,2.2-.3C5028.32,5110.15,5026.34,5094.78,5026.84,5078.52Z" transform="translate(-3540.62 -4845.27)"/><path class="cls-1" d="M5038.66,5084.75a0.52,0.52,0,0,0-1,0c-1,14.39-1.73,30.38.07,44.7a1.11,1.11,0,0,0,2.21,0C5041.29,5115.08,5040.1,5099.12,5038.66,5084.75Z" transform="translate(-3540.62 -4845.27)"/><path class="cls-1" d="M5051.53,5080.08c-0.18-1.39-2.37-1.42-2.21,0,2.09,18.49,2.21,37.07,4,55.54a1.14,1.14,0,0,0,2.28,0C5056.43,5117.25,5053.84,5098.29,5051.53,5080.08Z" transform="translate(-3540.62 -4845.27)"/><path class="cls-1" d="M5070.52,5075.45a1,1,0,0,0-1.92,0c0.22,22.71-1.83,45.08-2.44,67.7a1,1,0,0,0,2,.27C5072.43,5121.47,5072,5097.65,5070.52,5075.45Z" transform="translate(-3540.62 -4845.27)"/><path class="cls-1" d="M5098.26,5424.15c-7.44-14.74-5.46-34.53-6-50.61q-0.66-20.63-1.31-41.27-1.38-43.56-2.78-87.13c-1.92-58.09-3.84-116.19-6.6-174.25a0.76,0.76,0,0,0-1.53,0c1.15,64.21,3.29,128.41,5.42,192.6q1.52,45.86,3.12,91.71c0.74,21.83-4,50.54,7.81,70A1.07,1.07,0,0,0,5098.26,5424.15Z" transform="translate(-3540.62 -4845.27)"/><path class="cls-1" d="M5105.24,5250.64c-2.11-57.35-3-114.7-4.1-172.08a0.91,0.91,0,0,0-1.82,0c-1,113.72-.92,230.87,11.87,344,0.15,1.3,2.1,1.37,2.08,0C5112.39,5365.28,5107.35,5307.9,5105.24,5250.64Z" transform="translate(-3540.62 -4845.27)"/><path class="cls-1" d="M5123.73,5072.4a0.93,0.93,0,0,0-1.85,0c-1.1,115.54.27,231.36,2.38,346.89a1.74,1.74,0,0,0,3.48,0C5127.72,5303.74,5127,5187.91,5123.73,5072.4Z" transform="translate(-3540.62 -4845.27)"/><path class="cls-1" d="M5324.17,5070.86c-1,11.8-1.82,23.62-2.67,35.44-0.11,1.54,2.35,1.55,2.41,0,0.43-11.81.86-23.62,1.17-35.44A0.46,0.46,0,0,0,5324.17,5070.86Z" transform="translate(-3540.62 -4845.27)"/><path class="cls-1" d="M5354.08,5070.85a1.07,1.07,0,0,0-2.15,0c-0.34,120.2,4.16,240.59,6.57,360.77a1.2,1.2,0,0,0,2.41,0C5358.86,5311.43,5358.88,5191,5354.08,5070.85Z" transform="translate(-3540.62 -4845.27)"/><path class="cls-1" d="M5376.55,5073.95a0.7,0.7,0,0,0-1.4,0c-2.23,117.72-5.07,236.92-.55,354.58a1,1,0,0,0,2,0C5381.3,5310.87,5378.62,5191.67,5376.55,5073.95Z" transform="translate(-3540.62 -4845.27)"/><path class="cls-1" d="M5394.65,5075.53a0.67,0.67,0,0,0-1.33,0c-0.31,113.95,0,228.27,1.58,342.2a1.35,1.35,0,0,0,2.7,0C5402,5304.31,5400.77,5188.86,5394.65,5075.53Z" transform="translate(-3540.62 -4845.27)"/><path class="cls-1" d="M5408.83,5068.77a1,1,0,0,0-2,.27c14.45,120.07-6,239.74,1.54,359.91,0.12,1.89,3.08,1.9,3,0C5403.76,5309.18,5429.14,5187.76,5408.83,5068.77Z" transform="translate(-3540.62 -4845.27)"/><path class="cls-1" d="M5424.42,5078.44c-0.09-1-1.65-1-1.59,0,5.75,112.83,6.41,224.76,4.5,337.68,0,2.08,3.1,2.06,3.22,0C5436.87,5304.23,5434,5190.06,5424.42,5078.44Z" transform="translate(-3540.62 -4845.27)"/><path class="cls-1" d="M3543.09,5433l87.41-.22,235.77-.59,350.93-.88,425.22-1.07,468.9-1.18,470.11-1.18,441.33-1.11,370.45-.93,268.22-.67c42.08-.11,84.17,0,126.24-0.32h5.52c3.28,0,9.22-5,3.38-4.95l-87.41.22-235.77.59-350.93.88-425.22,1.07-468.9,1.18L4758.24,5425l-441.33,1.11-370.45.93-268.22.67c-42.08.11-84.17,0-126.24,0.32h-5.52c-3.28,0-9.22,5-3.38,4.95h0Z" transform="translate(-3540.62 -4845.27)"/></svg>