<svg id="Layer_1" data-name="Layer 1" xmlns="http://www.w3.org/2000/svg" viewBox="0 0 660.25 501.96"><defs><style>.cls-1{fill:#58595b;}</style></defs><title>pictaktoe Assets</title><path class="cls-1" d="M5268.87,5510l-32.3-47.75-53.2-78.64c-4.79-7.08-9.54-14.2-14.38-21.25-2.29-3.34-4.87-6.45-8.72-8.08-2.93-1.24-5.86-1.17-8.94-1.17H5008.12c-3.06,0-6.55-.47-9.57,0a8.58,8.58,0,0,1-1.27,0l2.78,3.94v-52.19c0-7.92-1.33-15.39-8.54-20.21-3.43-2.29-7-2.6-10.94-2.6H4651.76c-8,0-16-.11-24,0-8.28.11-14.87,5.63-15.21,14.18-0.05,1.32,0,2.65,0,4v377.08c0,5.58-.84,12.06.42,17.58a18.29,18.29,0,0,0,18,14.32c7,0,14,0,21,0h77.59l-2.77-3.64c5.41,31.66,27.25,59.72,57.13,71.86a89.51,89.51,0,0,0,119.87-58.95c0.43-1.54,1.15-8.74,1.91-9.28a5.41,5.41,0,0,1,1.55,0c2.48-.36,5.28,0,7.78,0h118.25l-2.77-3.64c8.19,47.91,53.24,84,102.14,77.73a89.65,89.65,0,0,0,75.88-68.84c0.26-1.14.51-4.84,1.09-5.26,0.37-.26,1.88,0,2.34,0h35.25c5,0,11.33.88,16.11-1,10.37-4.1,8.93-15.15,8.93-24.08V5589.7c0-23.12.6-46.34,0-69.46a19.21,19.21,0,0,0-3-9.68c-1-1.62-3.62-3.3-1.85-.32,2.44,4.1,1.79,9.36,1.79,13.91v145.69c0,10.16,3.38,28.86-8.15,34-3.56,1.58-7.57,1.21-11.37,1.21h-42.84a0.23,0.23,0,0,0-.3.21,90.09,90.09,0,0,1-55.81,68.66,89,89,0,0,1-90.31-16.11,84.16,84.16,0,0,1-26.82-49.13c-0.16-.94-1.59-3.64-2.77-3.64H4903.08a0.23,0.23,0,0,0-.3.21,90.09,90.09,0,0,1-55.81,68.66,89,89,0,0,1-90.31-16.11,84.14,84.14,0,0,1-26.82-49.13c-0.16-.94-1.59-3.64-2.77-3.64h-97.48c-6.78,0-13.66-2.08-14-10.51-0.07-2.09,0-4.19,0-6.28V5315.38c0-5.12-.2-10.28,0-15.4,0.54-13.83,12.62-13.78,22.6-13.78h328c6.42,0,12.89-.23,19.3,0,5.87,0.21,11.13,3.66,11.43,10.12,0.11,2.34,0,4.7,0,7v50c0,1,1.55,3.94,2.78,3.94h147.08c6.83,0,15.6-1.34,20.28,4.77,4.16,5.43,7.74,11.44,11.57,17.11l51.13,75.59c12.43,18.37,24.53,37,37.3,55.14,0.22,0.31.42,0.62,0.63,0.93C5269.36,5513.18,5270.51,5512.42,5268.87,5510Z" transform="translate(-4612.27 -5282)"/><path class="cls-1" d="M4815.08,5751.9c-25.63-.29-49.38-16.34-56.32-41.55-6.48-23.52,2.38-49.16,21.61-64a61.24,61.24,0,0,1,67.23-4.81c22.91,13.11,33.19,40.39,26.23,65.63-7.25,26.3-31.66,44.47-58.75,44.77-0.77,0,1.23,4.16,2.48,4.15,26.93-.3,51.19-17.93,59-43.91,7.38-24.65-2-51.57-21.4-68-20.34-17.16-50.22-19.61-72.82-5.34a62.29,62.29,0,0,0-26.51,68.78c7.62,27.66,33,48.1,61.76,48.42C4818.3,5756.06,4816.35,5751.91,4815.08,5751.9Z" transform="translate(-4612.27 -5282)"/><path class="cls-1" d="M4969.34,5677.08h-66.11l2.77,3.64a96.19,96.19,0,0,0-42.48-65,89.45,89.45,0,0,0-135.25,53.41c-0.27,1.09-.9,7.52-1.44,7.93a5.18,5.18,0,0,1-1.5,0c-2.42.39-5.23,0-7.68,0h-76.86l2.78,3.94V5320a34.56,34.56,0,0,1,0-5.1c0.19-1.24-.4-0.51.1-0.76,1-.48,3.42,0,4.47,0h323.69l-2.78-3.94v352.13c0,4.67-.51,9.67,0,14.31a6.08,6.08,0,0,1,0,.65c0,1.4,3.08,4,3.08,3.73V5328.89c0-4.68.49-9.65,0-14.31a6.41,6.41,0,0,1,0-.65c0-1-1.55-3.94-2.78-3.94H4640.79a0.23,0.23,0,0,0-.3.21v352.13c0,4.68-.49,9.65,0,14.31a6.41,6.41,0,0,1,0,.65c0,1,1.55,3.94,2.78,3.94h86.14a0.23,0.23,0,0,0,.3-0.21,90.07,90.07,0,0,1,55.45-69.26c30.64-12.05,66.54-5.82,91.11,16.17a84.22,84.22,0,0,1,26.67,49.66c0.15,0.94,1.59,3.64,2.77,3.64h66.11C4972.57,5681.23,4970.6,5677.08,4969.34,5677.08Z" transform="translate(-4612.27 -5282)"/><path class="cls-1" d="M4998.56,5385.2h151.17l-1.8-1.68,71.74,106.06,10.19,15.07-0.68-2.47h-233.1l2.78,3.94V5385c0-1.4-3.08-4-3.08-3.73v121.13c0,1,1.55,3.94,2.78,3.94h233.1c0.93,0-.57-2.3-0.68-2.47l-73.76-109.05c-2.69-4-5.17-9.15-8.57-12.6-2.72-2.75-10.3-1.15-13.83-1.15H4996.08C4995.33,5381.05,4997.3,5385.2,4998.56,5385.2Z" transform="translate(-4612.27 -5282)"/><path class="cls-1" d="M5118.8,5751.9c-25.63-.29-49.38-16.34-56.32-41.55-6.48-23.52,2.38-49.17,21.61-64a61.24,61.24,0,0,1,67.23-4.81c22.92,13.11,33.19,40.39,26.23,65.63-7.25,26.3-31.66,44.47-58.75,44.77-0.77,0,1.23,4.16,2.48,4.15,26.93-.3,51.2-17.93,59-43.91,7.39-24.65-2-51.57-21.41-68-20.34-17.16-50.22-19.61-72.82-5.34a62.29,62.29,0,0,0-26.51,68.78c7.62,27.66,33,48.1,61.76,48.42C5122,5756.06,5120.07,5751.91,5118.8,5751.9Z" transform="translate(-4612.27 -5282)"/><path class="cls-1" d="M5241.53,5677.08H5207l2.77,3.64c-6.7-41.48-41.49-75.6-83.81-79-44-3.49-85.13,26.91-94.55,70.08-0.32,1.46-.32,4.77-1.3,5.25-0.74.36-2.59,0-3.4,0h-30.58l2.78,3.94V5537.45c0-.71-0.34-2.48,0-3.12s-0.68.34,0.23-.06c1.63-.71,5.19,0,6.93,0h228.77c2.53,0,5.62.48,8.11,0a6.22,6.22,0,0,1,1.11,0l-2.78-3.94v147c0,1.4,3.08,4,3.08,3.73v-147c0-1-1.55-3.94-2.78-3.94H4996.08a0.23,0.23,0,0,0-.3.21v147c0,1,1.55,3.94,2.78,3.94h34.57a0.23,0.23,0,0,0,.3-0.21,90.06,90.06,0,0,1,55.45-69.26c30.64-12.05,66.55-5.82,91.11,16.17a84.22,84.22,0,0,1,26.67,49.66c0.15,0.94,1.59,3.64,2.77,3.64H5244C5244.76,5681.23,5242.8,5677.08,5241.53,5677.08Z" transform="translate(-4612.27 -5282)"/><path class="cls-1" d="M5244,5681.23c0.75,0-1.22-4.15-2.48-4.15-0.75,0,1.22,4.15,2.48,4.15h0Z" transform="translate(-4612.27 -5282)"/></svg>