<?xml version="1.0" encoding="utf-8"?><svg id="Layer_1" data-name="Layer 1" xmlns="http://www.w3.org/2000/svg" viewBox="0 0 35.11 33.06"><defs><style>.cls-1{fill:#585857;opacity:0.6;}.cls-2{fill:none;stroke:#585857;stroke-miterlimit:10;stroke-width:0.25px;}</style></defs><title>cart</title><g id="_Group_" data-name="&lt;Group&gt;"><rect id="_Path_" data-name="&lt;Path&gt;" class="cls-1" x="12.3" y="28.52" width="5.48" height="4.42" rx="0.47" ry="0.47"/><rect id="_Path_2" data-name="&lt;Path&gt;" class="cls-1" x="27.35" y="28.52" width="5.48" height="4.42" rx="0.47" ry="0.47"/><rect id="_Rectangle_" data-name="&lt;Rectangle&gt;" class="cls-1" x="3.45" y="-3.13" width="4" height="10.5" rx="2" ry="2" transform="translate(3.33 7.58) rotate(-90)"/><rect id="_Rectangle_2" data-name="&lt;Rectangle&gt;" class="cls-1" x="9.33" y="-0.21" width="4" height="26.5" rx="2" ry="2" transform="translate(-2.82 3.13) rotate(-14.02)"/><path id="_Path_3" data-name="&lt;Path&gt;" class="cls-1" d="M30.11,25.9h0a2,2,0,0,0,2.42-1.46L35,10.61a2,2,0,0,0-1.46-2.42h0a2,2,0,0,0-2.42,1.46L28.66,23.47A2,2,0,0,0,30.11,25.9Z"/><rect id="_Path_4" data-name="&lt;Path&gt;" class="cls-1" x="12.08" y="21.95" width="20.5" height="4" rx="2" ry="2"/><rect id="_Rectangle_3" data-name="&lt;Rectangle&gt;" class="cls-1" x="24.3" y="1.37" width="4" height="17.5" rx="2" ry="2" transform="translate(16.17 36.42) rotate(-90)"/><path id="_Path_5" data-name="&lt;Path&gt;" class="cls-2" d="M33,8.13H19.47a2,2,0,0,0,0,4H30.61L28.87,22H15.52l0,0.08,0-.08h0L10.63,2.13a2,2,0,0,0-2-2H2.13a2,2,0,0,0,0,4H7l5,20.31A2.07,2.07,0,0,0,14,26H30.5c2-.15,2-1.52,2-1.52l2.45-13.83A2,2,0,0,0,33,8.13Z"/><rect id="_Path_6" data-name="&lt;Path&gt;" class="cls-2" x="12.3" y="28.52" width="5.48" height="4.42" rx="0.47" ry="0.47"/><rect id="_Path_7" data-name="&lt;Path&gt;" class="cls-2" x="27.35" y="28.52" width="5.48" height="4.42" rx="0.47" ry="0.47"/></g></svg>
