<?xml version="1.0" encoding="utf-8"?>
<!-- Generator: Adobe Illustrator 15.0.0, SVG Export Plug-In . SVG Version: 6.00 Build 0)  -->
<!DOCTYPE svg PUBLIC "-//W3C//DTD SVG 1.1//EN" "http://www.w3.org/Graphics/SVG/1.1/DTD/svg11.dtd">
<svg version="1.1" id="Layer_1" xmlns="http://www.w3.org/2000/svg" xmlns:xlink="http://www.w3.org/1999/xlink" x="0px" y="0px"
	 width="25.181px" height="34.246px" viewBox="0 0 25.181 34.246" enable-background="new 0 0 25.181 34.246" xml:space="preserve">
<g>
	<defs>
		<rect id="SVGID_1_" width="25.181" height="34.246"/>
	</defs>
	<clipPath id="SVGID_2_">
		<use xlink:href="#SVGID_1_"  overflow="visible"/>
	</clipPath>
	<g clip-path="url(#SVGID_2_)">
		<defs>
			<rect id="SVGID_3_" width="25.18" height="34.246"/>
		</defs>
		<clipPath id="SVGID_4_">
			<use xlink:href="#SVGID_3_"  overflow="visible"/>
		</clipPath>
		<g opacity="0.6" clip-path="url(#SVGID_4_)">
			<g>
				<defs>
					<rect id="SVGID_5_" x="0.125" y="0.125" width="24.931" height="33.996"/>
				</defs>
				<clipPath id="SVGID_6_">
					<use xlink:href="#SVGID_5_"  overflow="visible"/>
				</clipPath>
				<path clip-path="url(#SVGID_6_)" fill-rule="evenodd" clip-rule="evenodd" fill="#585757" d="M3.585,31.813
					c0,0,0.507,2.308,3.113,2.308h11.785c2.607,0,3.113-2.308,3.113-2.308L23.923,9.19H1.259L3.585,31.813z M17.123,12.59
					c0-0.626,0.507-1.134,1.134-1.134c0.625,0,1.133,0.508,1.133,1.134l-1.133,16.999c0,0.626-0.508,1.133-1.134,1.133
					c-0.625,0-1.133-0.507-1.133-1.133L17.123,12.59z M11.457,12.59c0-0.626,0.508-1.134,1.134-1.134
					c0.625,0,1.132,0.508,1.132,1.134v16.999c0,0.626-0.507,1.133-1.132,1.133c-0.627,0-1.134-0.507-1.134-1.133V12.59z
					 M6.925,11.457c0.625,0,1.132,0.507,1.132,1.134l1.134,16.999c0,0.626-0.507,1.133-1.134,1.133
					c-0.625,0-1.132-0.507-1.132-1.133L5.791,12.59C5.791,11.964,6.299,11.457,6.925,11.457 M23.243,4.659h-4.986V2.392
					c0-1.719-0.557-2.267-2.267-2.267H9.191c-1.569,0-2.266,0.76-2.266,2.267v2.268H1.939c-1.003,0-1.814,0.761-1.814,1.701
					s0.811,1.7,1.814,1.7h21.304c1.002,0,1.813-0.76,1.813-1.7S24.245,4.659,23.243,4.659 M15.99,4.659H9.191V2.392h6.799V4.659z"/>
			</g>
		</g>
		<path clip-path="url(#SVGID_4_)" fill="none" stroke="#585757" stroke-width="0.25" stroke-miterlimit="10" d="M3.585,31.813
			c0,0,0.507,2.308,3.113,2.308h11.785c2.607,0,3.113-2.308,3.113-2.308L23.923,9.19H1.259L3.585,31.813z M17.123,12.59
			c0-0.626,0.507-1.134,1.134-1.134c0.625,0,1.133,0.508,1.133,1.134l-1.133,16.999c0,0.626-0.508,1.133-1.134,1.133
			c-0.625,0-1.133-0.507-1.133-1.133L17.123,12.59z M11.457,12.59c0-0.626,0.508-1.134,1.134-1.134c0.625,0,1.132,0.508,1.132,1.134
			v16.999c0,0.626-0.507,1.133-1.132,1.133c-0.627,0-1.134-0.507-1.134-1.133V12.59z M6.925,11.457c0.625,0,1.132,0.507,1.132,1.134
			l1.134,16.999c0,0.626-0.507,1.133-1.134,1.133c-0.625,0-1.132-0.507-1.132-1.133L5.791,12.59
			C5.791,11.964,6.299,11.457,6.925,11.457z M23.243,4.659h-4.986V2.392c0-1.719-0.557-2.267-2.267-2.267H9.191
			c-1.569,0-2.266,0.76-2.266,2.267v2.268H1.939c-1.003,0-1.814,0.761-1.814,1.701s0.811,1.7,1.814,1.7h21.304
			c1.002,0,1.813-0.76,1.813-1.7S24.245,4.659,23.243,4.659z M15.99,4.659H9.191V2.392h6.799V4.659z"/>
	</g>
</g>
</svg>
