<?xml version="1.0" encoding="utf-8"?><svg id="Layer_1" data-name="Layer 1" xmlns="http://www.w3.org/2000/svg" viewBox="0 0 25.23 38.26"><defs><style>.cls-1{opacity:0.6;}.cls-2{fill:#4f5252;}</style></defs><title>help</title><g id="_Group_" data-name="&lt;Group&gt;" class="cls-1"><path id="_Compound_Path_" data-name="&lt;Compound Path&gt;" class="cls-2" d="M12.1,0c6.62,0,13.13,3.05,13.13,10.34,0,6.72-7.7,9.31-9.36,11.74-1.24,1.81-.83,4.34-4.24,4.34A3.29,3.29,0,0,1,8.32,23c0-6.15,9-7.55,9-12.61,0-2.79-1.86-4.45-5-4.45-6.62,0-4,6.82-9,6.82A3.09,3.09,0,0,1,0,9.57C0,4.5,5.79,0,12.1,0ZM11.84,29.78A4.24,4.24,0,1,1,7.6,34,4.26,4.26,0,0,1,11.84,29.78Z"/></g></svg>
