<svg id="Isolation_Mode" data-name="Isolation Mode" xmlns="http://www.w3.org/2000/svg" viewBox="0 0 919.13 647.15"><defs><style>.cls-1{fill:#de98b2;}.cls-2{fill:#60dfe5;}</style></defs><title>logo-icon</title><path class="cls-1" d="M211.38,432.36L331.49,312.23a29.25,29.25,0,0,0-41.38-41.35L170,391,49.91,270.87A29.23,29.23,0,1,0,8.58,312.23l120.1,120.13L8.58,552.49a29.24,29.24,0,0,0,41.36,41.35L170,473.72,290.11,593.83a29.25,29.25,0,0,0,41.38-41.35Z"/><path class="cls-2" d="M889.87,647.15a29.24,29.24,0,0,1-29.22-29.25V142.51H624v-84H524.8v54.8a29.24,29.24,0,0,1-58.49,0V0H682.48V84H919.13l0,533.86A29.25,29.25,0,0,1,889.87,647.15Z"/><path class="cls-2" d="M573.55,281.42c83.22,0,150.95,67.71,150.95,150.94S656.78,583.3,573.55,583.3,422.63,515.6,422.63,432.36s67.7-150.94,150.92-150.94m0-58.48c-115.64,0-209.39,93.73-209.39,209.41s93.75,209.41,209.39,209.41S783,548,783,432.36,689.2,222.95,573.55,222.95h0Z"/><path class="cls-2" d="M649.41,453.49a29.24,29.24,0,0,1-29.24-29.24,40.81,40.81,0,0,0-40.77-40.77,29.24,29.24,0,0,1,0-58.48,99.37,99.37,0,0,1,99.25,99.25A29.26,29.26,0,0,1,649.41,453.49Z"/></svg>