<svg id="Isolation_Mode" data-name="Isolation Mode" xmlns="http://www.w3.org/2000/svg" viewBox="0 0 2073.78 590.63"><defs><style>.cls-1{fill:#9b9b9b;}</style></defs><title>logo-text</title><path class="cls-1" d="M387.12,37.11c0,20-16.5,35.93-36.51,35.93s-36.53-15.89-36.53-35.93C314.09,16.5,330.56,0,350.61,0S387.12,16.5,387.12,37.11Zm-10,401.79h-53V163.18h53V438.9Z"/><path class="cls-1" d="M632.79,241.54c-21.2-24.17-47.14-37.12-78.95-37.12C502,204.42,462,250.38,462,301c0,56.56,39.45,97.79,95.42,97.79,30.64,0,55.38-14.13,75.41-36.53v67.77c-24.14,13-48.3,18.25-76,18.25-81.32,0-147.87-62.44-147.87-144.92,0-85.42,66-148.46,150.82-148.46,24.73,0,51.84,5.89,73,18.25v68.35Z"/><path class="cls-1" d="M745.91,438.9h-53V212.67H664V163.18h28.86V57.74h53V163.18h51.82v49.49H745.91V438.9Z"/><path class="cls-1" d="M1080.51,438.9h-53v-43h-1.19c-21.2,31.22-54.21,52.42-93.66,52.42-84.24,0-132-70.1-132-149,0-75.41,50.08-144.33,130.19-144.33,40.66,0,73.65,21.2,95.44,54.2h1.19v-46h53V438.9ZM1030.45,301c0-53.62-32.42-99-89.55-99-54.78,0-87.18,47.7-87.18,99,0,51.85,31.24,100.15,87.18,100.15C998.64,401.19,1030.45,355.25,1030.45,301Z"/><path class="cls-1" d="M1448.72,438.9h-53V212.67h-28.88V163.18h28.88V57.74h53V163.18h51.84v49.49h-51.84V438.9Z"/><path class="cls-1" d="M1794.55,301.63c0,83.07-64.82,146.69-147.28,146.69S1500,384.71,1500,301.63s64.82-146.69,147.3-146.69S1794.55,218.57,1794.55,301.63Zm-241.55,0c0,51.84,41.84,96,94.27,96s94.24-44.19,94.24-96c0-52.43-41.83-96-94.24-96S1553,249.2,1553,301.63Z"/><path class="cls-1" d="M1863.48,309.89c0.57,47.12,32.4,91.3,83.05,91.3,40.66,0,62.45-20.62,82.48-53.61l44.77,25.32c-25.92,47.73-74.22,75.41-127.84,75.41-84.24,0-135.51-63.62-135.51-144.92,0-84.83,45.38-148.46,134.32-148.46,87.8,0,129,64.8,129,146.69v8.26h-210.3Zm157.28-40.08c-6.46-41.24-33.56-68.92-76-68.92-41.23,0-71.85,29.45-78.33,68.92h154.33Z"/><path class="cls-1" d="M147.3,148.19C66.1,148.19,2.06,209.88.09,291.06H0V590.63H53v-182c25.39,20.71,58.14,32.93,94.28,32.93,82.46,0,147.28-63.63,147.28-146.7S229.76,148.19,147.3,148.19Zm0,242.73c-52.43,0-94.28-44.19-94.28-96,0-52.44,41.84-96,94.28-96s94.26,43.58,94.26,96C241.56,346.73,199.71,390.92,147.3,390.92Z"/><polygon class="cls-1" points="1233.11 277.48 1350.93 163.18 1280.84 163.18 1177.14 266.87 1177.14 57.74 1124.13 57.74 1124.13 438.9 1177.14 438.9 1177.14 331.67 1195.42 313.41 1293.8 438.9 1362.71 438.9 1233.11 277.48"/><path class="cls-1" d="M196.83,319.9a25.34,25.34,0,0,1-25.34-25.34,24.24,24.24,0,0,0-24.2-24.22,25.34,25.34,0,1,1,0-50.68,75,75,0,0,1,74.89,74.9A25.34,25.34,0,0,1,196.83,319.9Z"/></svg>