<svg id="Isolation_Mode" data-name="Isolation Mode" xmlns="http://www.w3.org/2000/svg" viewBox="0 0 418.8 418.83"><defs><style>.cls-1{fill:#60dfe5;}</style></defs><title>ptt-logo</title><path class="cls-1" d="M209.39,58.48c83.22,0,150.95,67.71,150.95,150.94S292.62,360.35,209.39,360.35,58.47,292.65,58.47,209.41,126.17,58.48,209.39,58.48m0-58.48C93.75,0,0,93.73,0,209.41S93.75,418.83,209.39,418.83,418.8,325,418.8,209.41,325,0,209.39,0h0Z"/><path class="cls-1" d="M285.24,230.54A29.24,29.24,0,0,1,256,201.29a40.81,40.81,0,0,0-40.77-40.77,29.24,29.24,0,0,1,0-58.48,99.37,99.37,0,0,1,99.25,99.25A29.26,29.26,0,0,1,285.24,230.54Z"/></svg>