<svg id="Layer_1" data-name="Layer 1" xmlns="http://www.w3.org/2000/svg" viewBox="0 0 3258.43 173.62"><defs><style>.cls-1{fill:#58595b;}</style></defs><title>pictaktoe Assets-3</title><path class="cls-1" d="M3549.08,5786.39l87.41-.22,235.77-.59,350.93-.88,425.22-1.07,468.9-1.18,470.11-1.18,441.33-1.11,370.45-.93,268.22-.67c42.08-.11,84.17,0,126.24-0.32h5.52c3.28,0,9.22-5,3.38-4.95l-87.41.22-235.77.59-350.93.88L5703.24,5776l-468.9,1.18-470.11,1.18-441.33,1.11-370.45.93-268.22.67c-42.08.11-84.17,0-126.24,0.32h-5.52c-3.28,0-9.22,5-3.38,4.95h0Z" transform="translate(-3546.61 -5612.78)"/><path class="cls-1" d="M3720.37,5616.42h208c1.86,0,4.71-.31,6.15-1.65,1-.94,1.48-2-0.53-2H3726c-1.86,0-4.71.31-6.15,1.65-1,.94-1.48,2,0.53,2h0Z" transform="translate(-3546.61 -5612.78)"/><path class="cls-1" d="M4110.72,5616.42h208c1.86,0,4.71-.31,6.15-1.65,1-.94,1.48-2-0.53-2h-208c-1.86,0-4.71.31-6.15,1.65-1,.94-1.48,2,0.53,2h0Z" transform="translate(-3546.61 -5612.78)"/><path class="cls-1" d="M4501.06,5616.42h110.22c1.86,0,4.71-.31,6.15-1.65,1-.94,1.48-2-0.53-2H4506.68c-1.86,0-4.71.31-6.15,1.65-1,.94-1.48,2,0.53,2h0Z" transform="translate(-3546.61 -5612.78)"/><path class="cls-1" d="M5281.76,5616.42h208c1.86,0,4.71-.31,6.15-1.65,1-.94,1.48-2-0.53-2h-208c-1.86,0-4.71.31-6.15,1.65-1,.94-1.48,2,0.53,2h0Z" transform="translate(-3546.61 -5612.78)"/><path class="cls-1" d="M5672.1,5616.42h208c1.86,0,4.71-.31,6.15-1.65,1-.94,1.48-2-0.53-2h-208c-1.86,0-4.71.31-6.15,1.65-1,.94-1.48,2,0.53,2h0Z" transform="translate(-3546.61 -5612.78)"/><path class="cls-1" d="M6062.45,5616.42h208c1.86,0,4.71-.31,6.15-1.65,1-.94,1.48-2-0.53-2h-208c-1.86,0-4.71.31-6.15,1.65-1,.94-1.48,2,0.53,2h0Z" transform="translate(-3546.61 -5612.78)"/><path class="cls-1" d="M6452.8,5616.42h208c1.86,0,4.71-.31,6.15-1.65,1-.94,1.48-2-0.53-2h-208c-1.86,0-4.71.31-6.15,1.65-1,.94-1.48,2,0.53,2h0Z" transform="translate(-3546.61 -5612.78)"/></svg>