<?xml version="1.0" encoding="utf-8"?>
<!-- Generator: Adobe Illustrator 19.2.0, SVG Export Plug-In . SVG Version: 6.00 Build 0)  -->
<svg version="1.1" id="Layer_1" xmlns="http://www.w3.org/2000/svg" xmlns:xlink="http://www.w3.org/1999/xlink" x="0px" y="0px"
	 viewBox="0 0 25.2 34.2" style="enable-background:new 0 0 25.2 34.2;" xml:space="preserve">
<style type="text/css">
	.st0{fill-rule:evenodd;clip-rule:evenodd;fill:#FFFFFF;}
	.st1{fill-rule:evenodd;clip-rule:evenodd;fill:none;stroke:#FFFFFF;stroke-width:0.25;stroke-miterlimit:10;}
</style>
<path id="XMLID_571_" class="st0" d="M3.6,31.8c0,0,0.5,2.3,3.1,2.3h11.8c2.6,0,3.1-2.3,3.1-2.3l2.3-22.6H1.3L3.6,31.8z M17.1,12.6
	c0-0.6,0.5-1.1,1.1-1.1c0.6,0,1.1,0.5,1.1,1.1l-1.1,17c0,0.6-0.5,1.1-1.1,1.1c-0.6,0-1.1-0.5-1.1-1.1L17.1,12.6z M11.5,12.6
	c0-0.6,0.5-1.1,1.1-1.1c0.6,0,1.1,0.5,1.1,1.1v17c0,0.6-0.5,1.1-1.1,1.1c-0.6,0-1.1-0.5-1.1-1.1V12.6z M6.9,11.5
	c0.6,0,1.1,0.5,1.1,1.1l1.1,17c0,0.6-0.5,1.1-1.1,1.1c-0.6,0-1.1-0.5-1.1-1.1l-1.1-17C5.8,12,6.3,11.5,6.9,11.5L6.9,11.5z M23.2,4.7
	h-5V2.4c0-1.7-0.6-2.3-2.3-2.3H9.2c-1.6,0-2.3,0.8-2.3,2.3v2.3h-5c-1,0-1.8,0.8-1.8,1.7c0,0.9,0.8,1.7,1.8,1.7h21.3
	c1,0,1.8-0.8,1.8-1.7C25.1,5.4,24.2,4.7,23.2,4.7L23.2,4.7z M16,4.7H9.2l0-2.3H16V4.7z M16,4.7"/>
<path id="XMLID_579_" class="st1" d="M3.6,31.8c0,0,0.5,2.3,3.1,2.3h11.8c2.6,0,3.1-2.3,3.1-2.3l2.3-22.6H1.3L3.6,31.8z M17.1,12.6
	c0-0.6,0.5-1.1,1.1-1.1c0.6,0,1.1,0.5,1.1,1.1l-1.1,17c0,0.6-0.5,1.1-1.1,1.1c-0.6,0-1.1-0.5-1.1-1.1L17.1,12.6z M11.5,12.6
	c0-0.6,0.5-1.1,1.1-1.1c0.6,0,1.1,0.5,1.1,1.1v17c0,0.6-0.5,1.1-1.1,1.1c-0.6,0-1.1-0.5-1.1-1.1V12.6z M6.9,11.5
	c0.6,0,1.1,0.5,1.1,1.1l1.1,17c0,0.6-0.5,1.1-1.1,1.1c-0.6,0-1.1-0.5-1.1-1.1l-1.1-17C5.8,12,6.3,11.5,6.9,11.5L6.9,11.5z M23.2,4.7
	h-5V2.4c0-1.7-0.6-2.3-2.3-2.3H9.2c-1.6,0-2.3,0.8-2.3,2.3v2.3h-5c-1,0-1.8,0.8-1.8,1.7c0,0.9,0.8,1.7,1.8,1.7h21.3
	c1,0,1.8-0.8,1.8-1.7C25.1,5.4,24.2,4.7,23.2,4.7L23.2,4.7z M16,4.7H9.2l0-2.3H16V4.7z M16,4.7"/>
</svg>
